mtllib harpoon_cannon_blockout.mtl
# HarpoonCannon direct-fire blockout; units: centimeters

o HC_StaticMount
usemtl DarkMetal
v -82.000000 0.000000 0.000000
v -80.424393 -15.997406 0.000000
v -75.758122 -31.380041 0.000000
v -68.180508 -45.556759 0.000000
v -57.982756 -57.982756 0.000000
v -45.556759 -68.180508 0.000000
v -31.380041 -75.758122 0.000000
v -15.997406 -80.424393 0.000000
v -0.000000 -82.000000 0.000000
v 15.997406 -80.424393 0.000000
v 31.380041 -75.758122 0.000000
v 45.556759 -68.180508 0.000000
v 57.982756 -57.982756 0.000000
v 68.180508 -45.556759 0.000000
v 75.758122 -31.380041 0.000000
v 80.424393 -15.997406 0.000000
v 82.000000 -0.000000 0.000000
v 80.424393 15.997406 0.000000
v 75.758122 31.380041 0.000000
v 68.180508 45.556759 0.000000
v 57.982756 57.982756 0.000000
v 45.556759 68.180508 0.000000
v 31.380041 75.758122 0.000000
v 15.997406 80.424393 0.000000
v 0.000000 82.000000 0.000000
v -15.997406 80.424393 0.000000
v -31.380041 75.758122 0.000000
v -45.556759 68.180508 0.000000
v -57.982756 57.982756 0.000000
v -68.180508 45.556759 0.000000
v -75.758122 31.380041 0.000000
v -80.424393 15.997406 0.000000
v -82.000000 0.000000 12.000000
v -80.424393 -15.997406 12.000000
v -75.758122 -31.380041 12.000000
v -68.180508 -45.556759 12.000000
v -57.982756 -57.982756 12.000000
v -45.556759 -68.180508 12.000000
v -31.380041 -75.758122 12.000000
v -15.997406 -80.424393 12.000000
v -0.000000 -82.000000 12.000000
v 15.997406 -80.424393 12.000000
v 31.380041 -75.758122 12.000000
v 45.556759 -68.180508 12.000000
v 57.982756 -57.982756 12.000000
v 68.180508 -45.556759 12.000000
v 75.758122 -31.380041 12.000000
v 80.424393 -15.997406 12.000000
v 82.000000 -0.000000 12.000000
v 80.424393 15.997406 12.000000
v 75.758122 31.380041 12.000000
v 68.180508 45.556759 12.000000
v 57.982756 57.982756 12.000000
v 45.556759 68.180508 12.000000
v 31.380041 75.758122 12.000000
v 15.997406 80.424393 12.000000
v 0.000000 82.000000 12.000000
v -15.997406 80.424393 12.000000
v -31.380041 75.758122 12.000000
v -45.556759 68.180508 12.000000
v -57.982756 57.982756 12.000000
v -68.180508 45.556759 12.000000
v -75.758122 31.380041 12.000000
v -80.424393 15.997406 12.000000
v 0.000000 0.000000 0.000000
v 0.000000 0.000000 12.000000
f 1 2 34 33
f 2 3 35 34
f 3 4 36 35
f 4 5 37 36
f 5 6 38 37
f 6 7 39 38
f 7 8 40 39
f 8 9 41 40
f 9 10 42 41
f 10 11 43 42
f 11 12 44 43
f 12 13 45 44
f 13 14 46 45
f 14 15 47 46
f 15 16 48 47
f 16 17 49 48
f 17 18 50 49
f 18 19 51 50
f 19 20 52 51
f 20 21 53 52
f 21 22 54 53
f 22 23 55 54
f 23 24 56 55
f 24 25 57 56
f 25 26 58 57
f 26 27 59 58
f 27 28 60 59
f 28 29 61 60
f 29 30 62 61
f 30 31 63 62
f 31 32 64 63
f 32 1 33 64
f 32 31 30 29 28 27 26 25 24 23 22 21 20 19 18 17 16 15 14 13 12 11 10 9 8 7 6 5 4 3 2 1
f 33 34 35 36 37 38 39 40 41 42 43 44 45 46 47 48 49 50 51 52 53 54 55 56 57 58 59 60 61 62 63 64

o HC_RotatingBase
usemtl TealPaint
v -72.000000 0.000000 10.000000
v -70.616540 -14.046503 10.000000
v -66.519326 -27.553207 10.000000
v -59.865812 -40.001057 10.000000
v -50.911688 -50.911688 10.000000
v -40.001057 -59.865812 10.000000
v -27.553207 -66.519326 10.000000
v -14.046503 -70.616540 10.000000
v -0.000000 -72.000000 10.000000
v 14.046503 -70.616540 10.000000
v 27.553207 -66.519326 10.000000
v 40.001057 -59.865812 10.000000
v 50.911688 -50.911688 10.000000
v 59.865812 -40.001057 10.000000
v 66.519326 -27.553207 10.000000
v 70.616540 -14.046503 10.000000
v 72.000000 -0.000000 10.000000
v 70.616540 14.046503 10.000000
v 66.519326 27.553207 10.000000
v 59.865812 40.001057 10.000000
v 50.911688 50.911688 10.000000
v 40.001057 59.865812 10.000000
v 27.553207 66.519326 10.000000
v 14.046503 70.616540 10.000000
v 0.000000 72.000000 10.000000
v -14.046503 70.616540 10.000000
v -27.553207 66.519326 10.000000
v -40.001057 59.865812 10.000000
v -50.911688 50.911688 10.000000
v -59.865812 40.001057 10.000000
v -66.519326 27.553207 10.000000
v -70.616540 14.046503 10.000000
v -72.000000 0.000000 24.000000
v -70.616540 -14.046503 24.000000
v -66.519326 -27.553207 24.000000
v -59.865812 -40.001057 24.000000
v -50.911688 -50.911688 24.000000
v -40.001057 -59.865812 24.000000
v -27.553207 -66.519326 24.000000
v -14.046503 -70.616540 24.000000
v -0.000000 -72.000000 24.000000
v 14.046503 -70.616540 24.000000
v 27.553207 -66.519326 24.000000
v 40.001057 -59.865812 24.000000
v 50.911688 -50.911688 24.000000
v 59.865812 -40.001057 24.000000
v 66.519326 -27.553207 24.000000
v 70.616540 -14.046503 24.000000
v 72.000000 -0.000000 24.000000
v 70.616540 14.046503 24.000000
v 66.519326 27.553207 24.000000
v 59.865812 40.001057 24.000000
v 50.911688 50.911688 24.000000
v 40.001057 59.865812 24.000000
v 27.553207 66.519326 24.000000
v 14.046503 70.616540 24.000000
v 0.000000 72.000000 24.000000
v -14.046503 70.616540 24.000000
v -27.553207 66.519326 24.000000
v -40.001057 59.865812 24.000000
v -50.911688 50.911688 24.000000
v -59.865812 40.001057 24.000000
v -66.519326 27.553207 24.000000
v -70.616540 14.046503 24.000000
v 0.000000 0.000000 10.000000
v 0.000000 0.000000 24.000000
f 67 68 100 99
f 68 69 101 100
f 69 70 102 101
f 70 71 103 102
f 71 72 104 103
f 72 73 105 104
f 73 74 106 105
f 74 75 107 106
f 75 76 108 107
f 76 77 109 108
f 77 78 110 109
f 78 79 111 110
f 79 80 112 111
f 80 81 113 112
f 81 82 114 113
f 82 83 115 114
f 83 84 116 115
f 84 85 117 116
f 85 86 118 117
f 86 87 119 118
f 87 88 120 119
f 88 89 121 120
f 89 90 122 121
f 90 91 123 122
f 91 92 124 123
f 92 93 125 124
f 93 94 126 125
f 94 95 127 126
f 95 96 128 127
f 96 97 129 128
f 97 98 130 129
f 98 67 99 130
f 98 97 96 95 94 93 92 91 90 89 88 87 86 85 84 83 82 81 80 79 78 77 76 75 74 73 72 71 70 69 68 67
f 99 100 101 102 103 104 105 106 107 108 109 110 111 112 113 114 115 116 117 118 119 120 121 122 123 124 125 126 127 128 129 130

o HC_RotationRing
usemtl EdgeMetal
v 68.000000 0.000000 26.000000
v 67.045085 0.000000 28.938926
v 64.545085 0.000000 30.755283
v 61.454915 0.000000 30.755283
v 58.954915 0.000000 28.938926
v 58.000000 0.000000 26.000000
v 58.954915 0.000000 23.061074
v 61.454915 0.000000 21.244717
v 64.545085 0.000000 21.244717
v 67.045085 0.000000 23.061074
v 66.693399 13.266142 26.000000
v 65.756832 13.079847 28.938926
v 63.304869 12.592121 30.755283
v 60.274076 11.989259 30.755283
v 57.822113 11.501533 28.938926
v 56.885546 11.315239 26.000000
v 57.822113 11.501533 23.061074
v 60.274076 11.989259 21.244717
v 63.304869 12.592121 21.244717
v 65.756832 13.079847 23.061074
v 62.823808 26.022473 26.000000
v 61.941582 25.657043 28.938926
v 59.631883 24.700335 30.755283
v 56.776938 23.517778 30.755283
v 54.467239 22.561069 28.938926
v 53.585013 22.195639 26.000000
v 54.467239 22.561069 23.061074
v 56.776938 23.517778 21.244717
v 59.631883 24.700335 21.244717
v 61.941582 25.657043 23.061074
v 56.539934 37.778776 26.000000
v 55.745951 37.248253 28.938926
v 53.667277 35.859328 30.755283
v 51.097894 34.142521 30.755283
v 49.019220 32.753596 28.938926
v 48.225238 32.223074 26.000000
v 49.019220 32.753596 23.061074
v 51.097894 34.142521 21.244717
v 53.667277 35.859328 21.244717
v 55.745951 37.248253 23.061074
v 48.083261 48.083261 26.000000
v 47.408034 47.408034 28.938926
v 45.640267 45.640267 30.755283
v 43.455187 43.455187 30.755283
v 41.687420 41.687420 28.938926
v 41.012193 41.012193 26.000000
v 41.687420 41.687420 23.061074
v 43.455187 43.455187 21.244717
v 45.640267 45.640267 21.244717
v 47.408034 47.408034 23.061074
v 37.778776 56.539934 26.000000
v 37.248253 55.745951 28.938926
v 35.859328 53.667277 30.755283
v 34.142521 51.097894 30.755283
v 32.753596 49.019220 28.938926
v 32.223074 48.225238 26.000000
v 32.753596 49.019220 23.061074
v 34.142521 51.097894 21.244717
v 35.859328 53.667277 21.244717
v 37.248253 55.745951 23.061074
v 26.022473 62.823808 26.000000
v 25.657043 61.941582 28.938926
v 24.700335 59.631883 30.755283
v 23.517778 56.776938 30.755283
v 22.561069 54.467239 28.938926
v 22.195639 53.585013 26.000000
v 22.561069 54.467239 23.061074
v 23.517778 56.776938 21.244717
v 24.700335 59.631883 21.244717
v 25.657043 61.941582 23.061074
v 13.266142 66.693399 26.000000
v 13.079847 65.756832 28.938926
v 12.592121 63.304869 30.755283
v 11.989259 60.274076 30.755283
v 11.501533 57.822113 28.938926
v 11.315239 56.885546 26.000000
v 11.501533 57.822113 23.061074
v 11.989259 60.274076 21.244717
v 12.592121 63.304869 21.244717
v 13.079847 65.756832 23.061074
v 0.000000 68.000000 26.000000
v 0.000000 67.045085 28.938926
v 0.000000 64.545085 30.755283
v 0.000000 61.454915 30.755283
v 0.000000 58.954915 28.938926
v 0.000000 58.000000 26.000000
v 0.000000 58.954915 23.061074
v 0.000000 61.454915 21.244717
v 0.000000 64.545085 21.244717
v 0.000000 67.045085 23.061074
v -13.266142 66.693399 26.000000
v -13.079847 65.756832 28.938926
v -12.592121 63.304869 30.755283
v -11.989259 60.274076 30.755283
v -11.501533 57.822113 28.938926
v -11.315239 56.885546 26.000000
v -11.501533 57.822113 23.061074
v -11.989259 60.274076 21.244717
v -12.592121 63.304869 21.244717
v -13.079847 65.756832 23.061074
v -26.022473 62.823808 26.000000
v -25.657043 61.941582 28.938926
v -24.700335 59.631883 30.755283
v -23.517778 56.776938 30.755283
v -22.561069 54.467239 28.938926
v -22.195639 53.585013 26.000000
v -22.561069 54.467239 23.061074
v -23.517778 56.776938 21.244717
v -24.700335 59.631883 21.244717
v -25.657043 61.941582 23.061074
v -37.778776 56.539934 26.000000
v -37.248253 55.745951 28.938926
v -35.859328 53.667277 30.755283
v -34.142521 51.097894 30.755283
v -32.753596 49.019220 28.938926
v -32.223074 48.225238 26.000000
v -32.753596 49.019220 23.061074
v -34.142521 51.097894 21.244717
v -35.859328 53.667277 21.244717
v -37.248253 55.745951 23.061074
v -48.083261 48.083261 26.000000
v -47.408034 47.408034 28.938926
v -45.640267 45.640267 30.755283
v -43.455187 43.455187 30.755283
v -41.687420 41.687420 28.938926
v -41.012193 41.012193 26.000000
v -41.687420 41.687420 23.061074
v -43.455187 43.455187 21.244717
v -45.640267 45.640267 21.244717
v -47.408034 47.408034 23.061074
v -56.539934 37.778776 26.000000
v -55.745951 37.248253 28.938926
v -53.667277 35.859328 30.755283
v -51.097894 34.142521 30.755283
v -49.019220 32.753596 28.938926
v -48.225238 32.223074 26.000000
v -49.019220 32.753596 23.061074
v -51.097894 34.142521 21.244717
v -53.667277 35.859328 21.244717
v -55.745951 37.248253 23.061074
v -62.823808 26.022473 26.000000
v -61.941582 25.657043 28.938926
v -59.631883 24.700335 30.755283
v -56.776938 23.517778 30.755283
v -54.467239 22.561069 28.938926
v -53.585013 22.195639 26.000000
v -54.467239 22.561069 23.061074
v -56.776938 23.517778 21.244717
v -59.631883 24.700335 21.244717
v -61.941582 25.657043 23.061074
v -66.693399 13.266142 26.000000
v -65.756832 13.079847 28.938926
v -63.304869 12.592121 30.755283
v -60.274076 11.989259 30.755283
v -57.822113 11.501533 28.938926
v -56.885546 11.315239 26.000000
v -57.822113 11.501533 23.061074
v -60.274076 11.989259 21.244717
v -63.304869 12.592121 21.244717
v -65.756832 13.079847 23.061074
v -68.000000 0.000000 26.000000
v -67.045085 0.000000 28.938926
v -64.545085 0.000000 30.755283
v -61.454915 0.000000 30.755283
v -58.954915 0.000000 28.938926
v -58.000000 0.000000 26.000000
v -58.954915 0.000000 23.061074
v -61.454915 0.000000 21.244717
v -64.545085 0.000000 21.244717
v -67.045085 0.000000 23.061074
v -66.693399 -13.266142 26.000000
v -65.756832 -13.079847 28.938926
v -63.304869 -12.592121 30.755283
v -60.274076 -11.989259 30.755283
v -57.822113 -11.501533 28.938926
v -56.885546 -11.315239 26.000000
v -57.822113 -11.501533 23.061074
v -60.274076 -11.989259 21.244717
v -63.304869 -12.592121 21.244717
v -65.756832 -13.079847 23.061074
v -62.823808 -26.022473 26.000000
v -61.941582 -25.657043 28.938926
v -59.631883 -24.700335 30.755283
v -56.776938 -23.517778 30.755283
v -54.467239 -22.561069 28.938926
v -53.585013 -22.195639 26.000000
v -54.467239 -22.561069 23.061074
v -56.776938 -23.517778 21.244717
v -59.631883 -24.700335 21.244717
v -61.941582 -25.657043 23.061074
v -56.539934 -37.778776 26.000000
v -55.745951 -37.248253 28.938926
v -53.667277 -35.859328 30.755283
v -51.097894 -34.142521 30.755283
v -49.019220 -32.753596 28.938926
v -48.225238 -32.223074 26.000000
v -49.019220 -32.753596 23.061074
v -51.097894 -34.142521 21.244717
v -53.667277 -35.859328 21.244717
v -55.745951 -37.248253 23.061074
v -48.083261 -48.083261 26.000000
v -47.408034 -47.408034 28.938926
v -45.640267 -45.640267 30.755283
v -43.455187 -43.455187 30.755283
v -41.687420 -41.687420 28.938926
v -41.012193 -41.012193 26.000000
v -41.687420 -41.687420 23.061074
v -43.455187 -43.455187 21.244717
v -45.640267 -45.640267 21.244717
v -47.408034 -47.408034 23.061074
v -37.778776 -56.539934 26.000000
v -37.248253 -55.745951 28.938926
v -35.859328 -53.667277 30.755283
v -34.142521 -51.097894 30.755283
v -32.753596 -49.019220 28.938926
v -32.223074 -48.225238 26.000000
v -32.753596 -49.019220 23.061074
v -34.142521 -51.097894 21.244717
v -35.859328 -53.667277 21.244717
v -37.248253 -55.745951 23.061074
v -26.022473 -62.823808 26.000000
v -25.657043 -61.941582 28.938926
v -24.700335 -59.631883 30.755283
v -23.517778 -56.776938 30.755283
v -22.561069 -54.467239 28.938926
v -22.195639 -53.585013 26.000000
v -22.561069 -54.467239 23.061074
v -23.517778 -56.776938 21.244717
v -24.700335 -59.631883 21.244717
v -25.657043 -61.941582 23.061074
v -13.266142 -66.693399 26.000000
v -13.079847 -65.756832 28.938926
v -12.592121 -63.304869 30.755283
v -11.989259 -60.274076 30.755283
v -11.501533 -57.822113 28.938926
v -11.315239 -56.885546 26.000000
v -11.501533 -57.822113 23.061074
v -11.989259 -60.274076 21.244717
v -12.592121 -63.304869 21.244717
v -13.079847 -65.756832 23.061074
v -0.000000 -68.000000 26.000000
v -0.000000 -67.045085 28.938926
v -0.000000 -64.545085 30.755283
v -0.000000 -61.454915 30.755283
v -0.000000 -58.954915 28.938926
v -0.000000 -58.000000 26.000000
v -0.000000 -58.954915 23.061074
v -0.000000 -61.454915 21.244717
v -0.000000 -64.545085 21.244717
v -0.000000 -67.045085 23.061074
v 13.266142 -66.693399 26.000000
v 13.079847 -65.756832 28.938926
v 12.592121 -63.304869 30.755283
v 11.989259 -60.274076 30.755283
v 11.501533 -57.822113 28.938926
v 11.315239 -56.885546 26.000000
v 11.501533 -57.822113 23.061074
v 11.989259 -60.274076 21.244717
v 12.592121 -63.304869 21.244717
v 13.079847 -65.756832 23.061074
v 26.022473 -62.823808 26.000000
v 25.657043 -61.941582 28.938926
v 24.700335 -59.631883 30.755283
v 23.517778 -56.776938 30.755283
v 22.561069 -54.467239 28.938926
v 22.195639 -53.585013 26.000000
v 22.561069 -54.467239 23.061074
v 23.517778 -56.776938 21.244717
v 24.700335 -59.631883 21.244717
v 25.657043 -61.941582 23.061074
v 37.778776 -56.539934 26.000000
v 37.248253 -55.745951 28.938926
v 35.859328 -53.667277 30.755283
v 34.142521 -51.097894 30.755283
v 32.753596 -49.019220 28.938926
v 32.223074 -48.225238 26.000000
v 32.753596 -49.019220 23.061074
v 34.142521 -51.097894 21.244717
v 35.859328 -53.667277 21.244717
v 37.248253 -55.745951 23.061074
v 48.083261 -48.083261 26.000000
v 47.408034 -47.408034 28.938926
v 45.640267 -45.640267 30.755283
v 43.455187 -43.455187 30.755283
v 41.687420 -41.687420 28.938926
v 41.012193 -41.012193 26.000000
v 41.687420 -41.687420 23.061074
v 43.455187 -43.455187 21.244717
v 45.640267 -45.640267 21.244717
v 47.408034 -47.408034 23.061074
v 56.539934 -37.778776 26.000000
v 55.745951 -37.248253 28.938926
v 53.667277 -35.859328 30.755283
v 51.097894 -34.142521 30.755283
v 49.019220 -32.753596 28.938926
v 48.225238 -32.223074 26.000000
v 49.019220 -32.753596 23.061074
v 51.097894 -34.142521 21.244717
v 53.667277 -35.859328 21.244717
v 55.745951 -37.248253 23.061074
v 62.823808 -26.022473 26.000000
v 61.941582 -25.657043 28.938926
v 59.631883 -24.700335 30.755283
v 56.776938 -23.517778 30.755283
v 54.467239 -22.561069 28.938926
v 53.585013 -22.195639 26.000000
v 54.467239 -22.561069 23.061074
v 56.776938 -23.517778 21.244717
v 59.631883 -24.700335 21.244717
v 61.941582 -25.657043 23.061074
v 66.693399 -13.266142 26.000000
v 65.756832 -13.079847 28.938926
v 63.304869 -12.592121 30.755283
v 60.274076 -11.989259 30.755283
v 57.822113 -11.501533 28.938926
v 56.885546 -11.315239 26.000000
v 57.822113 -11.501533 23.061074
v 60.274076 -11.989259 21.244717
v 63.304869 -12.592121 21.244717
v 65.756832 -13.079847 23.061074
f 133 143 144 134
f 134 144 145 135
f 135 145 146 136
f 136 146 147 137
f 137 147 148 138
f 138 148 149 139
f 139 149 150 140
f 140 150 151 141
f 141 151 152 142
f 142 152 143 133
f 143 153 154 144
f 144 154 155 145
f 145 155 156 146
f 146 156 157 147
f 147 157 158 148
f 148 158 159 149
f 149 159 160 150
f 150 160 161 151
f 151 161 162 152
f 152 162 153 143
f 153 163 164 154
f 154 164 165 155
f 155 165 166 156
f 156 166 167 157
f 157 167 168 158
f 158 168 169 159
f 159 169 170 160
f 160 170 171 161
f 161 171 172 162
f 162 172 163 153
f 163 173 174 164
f 164 174 175 165
f 165 175 176 166
f 166 176 177 167
f 167 177 178 168
f 168 178 179 169
f 169 179 180 170
f 170 180 181 171
f 171 181 182 172
f 172 182 173 163
f 173 183 184 174
f 174 184 185 175
f 175 185 186 176
f 176 186 187 177
f 177 187 188 178
f 178 188 189 179
f 179 189 190 180
f 180 190 191 181
f 181 191 192 182
f 182 192 183 173
f 183 193 194 184
f 184 194 195 185
f 185 195 196 186
f 186 196 197 187
f 187 197 198 188
f 188 198 199 189
f 189 199 200 190
f 190 200 201 191
f 191 201 202 192
f 192 202 193 183
f 193 203 204 194
f 194 204 205 195
f 195 205 206 196
f 196 206 207 197
f 197 207 208 198
f 198 208 209 199
f 199 209 210 200
f 200 210 211 201
f 201 211 212 202
f 202 212 203 193
f 203 213 214 204
f 204 214 215 205
f 205 215 216 206
f 206 216 217 207
f 207 217 218 208
f 208 218 219 209
f 209 219 220 210
f 210 220 221 211
f 211 221 222 212
f 212 222 213 203
f 213 223 224 214
f 214 224 225 215
f 215 225 226 216
f 216 226 227 217
f 217 227 228 218
f 218 228 229 219
f 219 229 230 220
f 220 230 231 221
f 221 231 232 222
f 222 232 223 213
f 223 233 234 224
f 224 234 235 225
f 225 235 236 226
f 226 236 237 227
f 227 237 238 228
f 228 238 239 229
f 229 239 240 230
f 230 240 241 231
f 231 241 242 232
f 232 242 233 223
f 233 243 244 234
f 234 244 245 235
f 235 245 246 236
f 236 246 247 237
f 237 247 248 238
f 238 248 249 239
f 239 249 250 240
f 240 250 251 241
f 241 251 252 242
f 242 252 243 233
f 243 253 254 244
f 244 254 255 245
f 245 255 256 246
f 246 256 257 247
f 247 257 258 248
f 248 258 259 249
f 249 259 260 250
f 250 260 261 251
f 251 261 262 252
f 252 262 253 243
f 253 263 264 254
f 254 264 265 255
f 255 265 266 256
f 256 266 267 257
f 257 267 268 258
f 258 268 269 259
f 259 269 270 260
f 260 270 271 261
f 261 271 272 262
f 262 272 263 253
f 263 273 274 264
f 264 274 275 265
f 265 275 276 266
f 266 276 277 267
f 267 277 278 268
f 268 278 279 269
f 269 279 280 270
f 270 280 281 271
f 271 281 282 272
f 272 282 273 263
f 273 283 284 274
f 274 284 285 275
f 275 285 286 276
f 276 286 287 277
f 277 287 288 278
f 278 288 289 279
f 279 289 290 280
f 280 290 291 281
f 281 291 292 282
f 282 292 283 273
f 283 293 294 284
f 284 294 295 285
f 285 295 296 286
f 286 296 297 287
f 287 297 298 288
f 288 298 299 289
f 289 299 300 290
f 290 300 301 291
f 291 301 302 292
f 292 302 293 283
f 293 303 304 294
f 294 304 305 295
f 295 305 306 296
f 296 306 307 297
f 297 307 308 298
f 298 308 309 299
f 299 309 310 300
f 300 310 311 301
f 301 311 312 302
f 302 312 303 293
f 303 313 314 304
f 304 314 315 305
f 305 315 316 306
f 306 316 317 307
f 307 317 318 308
f 308 318 319 309
f 309 319 320 310
f 310 320 321 311
f 311 321 322 312
f 312 322 313 303
f 313 323 324 314
f 314 324 325 315
f 315 325 326 316
f 316 326 327 317
f 317 327 328 318
f 318 328 329 319
f 319 329 330 320
f 320 330 331 321
f 321 331 332 322
f 322 332 323 313
f 323 333 334 324
f 324 334 335 325
f 325 335 336 326
f 326 336 337 327
f 327 337 338 328
f 328 338 339 329
f 329 339 340 330
f 330 340 341 331
f 331 341 342 332
f 332 342 333 323
f 333 343 344 334
f 334 344 345 335
f 335 345 346 336
f 336 346 347 337
f 337 347 348 338
f 338 348 349 339
f 339 349 350 340
f 340 350 351 341
f 341 351 352 342
f 342 352 343 333
f 343 353 354 344
f 344 354 355 345
f 345 355 356 346
f 346 356 357 347
f 347 357 358 348
f 348 358 359 349
f 349 359 360 350
f 350 360 361 351
f 351 361 362 352
f 352 362 353 343
f 353 363 364 354
f 354 364 365 355
f 355 365 366 356
f 356 366 367 357
f 357 367 368 358
f 358 368 369 359
f 359 369 370 360
f 360 370 371 361
f 361 371 372 362
f 362 372 363 353
f 363 373 374 364
f 364 374 375 365
f 365 375 376 366
f 366 376 377 367
f 367 377 378 368
f 368 378 379 369
f 369 379 380 370
f 370 380 381 371
f 371 381 382 372
f 372 382 373 363
f 373 383 384 374
f 374 384 385 375
f 375 385 386 376
f 376 386 387 377
f 377 387 388 378
f 378 388 389 379
f 379 389 390 380
f 380 390 391 381
f 381 391 392 382
f 382 392 383 373
f 383 393 394 384
f 384 394 395 385
f 385 395 396 386
f 386 396 397 387
f 387 397 398 388
f 388 398 399 389
f 389 399 400 390
f 390 400 401 391
f 391 401 402 392
f 392 402 393 383
f 393 403 404 394
f 394 404 405 395
f 395 405 406 396
f 396 406 407 397
f 397 407 408 398
f 398 408 409 399
f 399 409 410 400
f 400 410 411 401
f 401 411 412 402
f 402 412 403 393
f 403 413 414 404
f 404 414 415 405
f 405 415 416 406
f 406 416 417 407
f 407 417 418 408
f 408 418 419 409
f 409 419 420 410
f 410 420 421 411
f 411 421 422 412
f 412 422 413 403
f 413 423 424 414
f 414 424 425 415
f 415 425 426 416
f 416 426 427 417
f 417 427 428 418
f 418 428 429 419
f 419 429 430 420
f 420 430 431 421
f 421 431 432 422
f 422 432 423 413
f 423 433 434 424
f 424 434 435 425
f 425 435 436 426
f 426 436 437 427
f 427 437 438 428
f 428 438 439 429
f 429 439 440 430
f 430 440 441 431
f 431 441 442 432
f 432 442 433 423
f 433 443 444 434
f 434 444 445 435
f 435 445 446 436
f 436 446 447 437
f 437 447 448 438
f 438 448 449 439
f 439 449 450 440
f 440 450 451 441
f 441 451 452 442
f 442 452 443 433
f 443 133 134 444
f 444 134 135 445
f 445 135 136 446
f 446 136 137 447
f 447 137 138 448
f 448 138 139 449
f 449 139 140 450
f 450 140 141 451
f 451 141 142 452
f 452 142 133 443

o HC_Yoke_Left
usemtl DarkMetal
v -23.000000 -59.000000 23.000000
v 13.000000 -59.000000 23.000000
v 13.000000 -45.000000 23.000000
v -23.000000 -45.000000 23.000000
v -23.000000 -59.000000 99.000000
v 13.000000 -59.000000 99.000000
v 13.000000 -45.000000 99.000000
v -23.000000 -45.000000 99.000000
f 453 456 455 454
f 457 458 459 460
f 453 454 458 457
f 454 455 459 458
f 455 456 460 459
f 456 453 457 460

o HC_Yoke_Right
usemtl DarkMetal
v -23.000000 45.000000 23.000000
v 13.000000 45.000000 23.000000
v 13.000000 59.000000 23.000000
v -23.000000 59.000000 23.000000
v -23.000000 45.000000 99.000000
v 13.000000 45.000000 99.000000
v 13.000000 59.000000 99.000000
v -23.000000 59.000000 99.000000
f 461 464 463 462
f 465 466 467 468
f 461 462 466 465
f 462 463 467 466
f 463 464 468 467
f 464 461 465 468

o HC_Trunnion
usemtl EdgeMetal
v 10.000000 -62.000000 94.000000
v 9.488887 -62.000000 90.117714
v 7.990381 -62.000000 86.500000
v 5.606602 -62.000000 83.393398
v 2.500000 -62.000000 81.009619
v -1.117714 -62.000000 79.511113
v -5.000000 -62.000000 79.000000
v -8.882286 -62.000000 79.511113
v -12.500000 -62.000000 81.009619
v -15.606602 -62.000000 83.393398
v -17.990381 -62.000000 86.500000
v -19.488887 -62.000000 90.117714
v -20.000000 -62.000000 94.000000
v -19.488887 -62.000000 97.882286
v -17.990381 -62.000000 101.500000
v -15.606602 -62.000000 104.606602
v -12.500000 -62.000000 106.990381
v -8.882286 -62.000000 108.488887
v -5.000000 -62.000000 109.000000
v -1.117714 -62.000000 108.488887
v 2.500000 -62.000000 106.990381
v 5.606602 -62.000000 104.606602
v 7.990381 -62.000000 101.500000
v 9.488887 -62.000000 97.882286
v 10.000000 62.000000 94.000000
v 9.488887 62.000000 90.117714
v 7.990381 62.000000 86.500000
v 5.606602 62.000000 83.393398
v 2.500000 62.000000 81.009619
v -1.117714 62.000000 79.511113
v -5.000000 62.000000 79.000000
v -8.882286 62.000000 79.511113
v -12.500000 62.000000 81.009619
v -15.606602 62.000000 83.393398
v -17.990381 62.000000 86.500000
v -19.488887 62.000000 90.117714
v -20.000000 62.000000 94.000000
v -19.488887 62.000000 97.882286
v -17.990381 62.000000 101.500000
v -15.606602 62.000000 104.606602
v -12.500000 62.000000 106.990381
v -8.882286 62.000000 108.488887
v -5.000000 62.000000 109.000000
v -1.117714 62.000000 108.488887
v 2.500000 62.000000 106.990381
v 5.606602 62.000000 104.606602
v 7.990381 62.000000 101.500000
v 9.488887 62.000000 97.882286
v -5.000000 -62.000000 94.000000
v -5.000000 62.000000 94.000000
f 469 470 494 493
f 470 471 495 494
f 471 472 496 495
f 472 473 497 496
f 473 474 498 497
f 474 475 499 498
f 475 476 500 499
f 476 477 501 500
f 477 478 502 501
f 478 479 503 502
f 479 480 504 503
f 480 481 505 504
f 481 482 506 505
f 482 483 507 506
f 483 484 508 507
f 484 485 509 508
f 485 486 510 509
f 486 487 511 510
f 487 488 512 511
f 488 489 513 512
f 489 490 514 513
f 490 491 515 514
f 491 492 516 515
f 492 469 493 516
f 492 491 490 489 488 487 486 485 484 483 482 481 480 479 478 477 476 475 474 473 472 471 470 469
f 493 494 495 496 497 498 499 500 501 502 503 504 505 506 507 508 509 510 511 512 513 514 515 516

o HC_ElevationGear_Left
usemtl DarkMetal
v 19.000000 -64.000000 94.000000
v 18.398270 -64.000000 88.659498
v 16.623253 -64.000000 83.586790
v 13.763956 -64.000000 79.036245
v 9.963755 -64.000000 75.236044
v 5.413210 -64.000000 72.376747
v 0.340502 -64.000000 70.601730
v -5.000000 -64.000000 70.000000
v -10.340502 -64.000000 70.601730
v -15.413210 -64.000000 72.376747
v -19.963755 -64.000000 75.236044
v -23.763956 -64.000000 79.036245
v -26.623253 -64.000000 83.586790
v -28.398270 -64.000000 88.659498
v -29.000000 -64.000000 94.000000
v -28.398270 -64.000000 99.340502
v -26.623253 -64.000000 104.413210
v -23.763956 -64.000000 108.963755
v -19.963755 -64.000000 112.763956
v -15.413210 -64.000000 115.623253
v -10.340502 -64.000000 117.398270
v -5.000000 -64.000000 118.000000
v 0.340502 -64.000000 117.398270
v 5.413210 -64.000000 115.623253
v 9.963755 -64.000000 112.763956
v 13.763956 -64.000000 108.963755
v 16.623253 -64.000000 104.413210
v 18.398270 -64.000000 99.340502
v 19.000000 -57.000000 94.000000
v 18.398270 -57.000000 88.659498
v 16.623253 -57.000000 83.586790
v 13.763956 -57.000000 79.036245
v 9.963755 -57.000000 75.236044
v 5.413210 -57.000000 72.376747
v 0.340502 -57.000000 70.601730
v -5.000000 -57.000000 70.000000
v -10.340502 -57.000000 70.601730
v -15.413210 -57.000000 72.376747
v -19.963755 -57.000000 75.236044
v -23.763956 -57.000000 79.036245
v -26.623253 -57.000000 83.586790
v -28.398270 -57.000000 88.659498
v -29.000000 -57.000000 94.000000
v -28.398270 -57.000000 99.340502
v -26.623253 -57.000000 104.413210
v -23.763956 -57.000000 108.963755
v -19.963755 -57.000000 112.763956
v -15.413210 -57.000000 115.623253
v -10.340502 -57.000000 117.398270
v -5.000000 -57.000000 118.000000
v 0.340502 -57.000000 117.398270
v 5.413210 -57.000000 115.623253
v 9.963755 -57.000000 112.763956
v 13.763956 -57.000000 108.963755
v 16.623253 -57.000000 104.413210
v 18.398270 -57.000000 99.340502
v -5.000000 -64.000000 94.000000
v -5.000000 -57.000000 94.000000
f 519 520 548 547
f 520 521 549 548
f 521 522 550 549
f 522 523 551 550
f 523 524 552 551
f 524 525 553 552
f 525 526 554 553
f 526 527 555 554
f 527 528 556 555
f 528 529 557 556
f 529 530 558 557
f 530 531 559 558
f 531 532 560 559
f 532 533 561 560
f 533 534 562 561
f 534 535 563 562
f 535 536 564 563
f 536 537 565 564
f 537 538 566 565
f 538 539 567 566
f 539 540 568 567
f 540 541 569 568
f 541 542 570 569
f 542 543 571 570
f 543 544 572 571
f 544 545 573 572
f 545 546 574 573
f 546 519 547 574
f 546 545 544 543 542 541 540 539 538 537 536 535 534 533 532 531 530 529 528 527 526 525 524 523 522 521 520 519
f 547 548 549 550 551 552 553 554 555 556 557 558 559 560 561 562 563 564 565 566 567 568 569 570 571 572 573 574

o HC_ElevationGear_Right
usemtl DarkMetal
v 19.000000 57.000000 94.000000
v 18.398270 57.000000 88.659498
v 16.623253 57.000000 83.586790
v 13.763956 57.000000 79.036245
v 9.963755 57.000000 75.236044
v 5.413210 57.000000 72.376747
v 0.340502 57.000000 70.601730
v -5.000000 57.000000 70.000000
v -10.340502 57.000000 70.601730
v -15.413210 57.000000 72.376747
v -19.963755 57.000000 75.236044
v -23.763956 57.000000 79.036245
v -26.623253 57.000000 83.586790
v -28.398270 57.000000 88.659498
v -29.000000 57.000000 94.000000
v -28.398270 57.000000 99.340502
v -26.623253 57.000000 104.413210
v -23.763956 57.000000 108.963755
v -19.963755 57.000000 112.763956
v -15.413210 57.000000 115.623253
v -10.340502 57.000000 117.398270
v -5.000000 57.000000 118.000000
v 0.340502 57.000000 117.398270
v 5.413210 57.000000 115.623253
v 9.963755 57.000000 112.763956
v 13.763956 57.000000 108.963755
v 16.623253 57.000000 104.413210
v 18.398270 57.000000 99.340502
v 19.000000 64.000000 94.000000
v 18.398270 64.000000 88.659498
v 16.623253 64.000000 83.586790
v 13.763956 64.000000 79.036245
v 9.963755 64.000000 75.236044
v 5.413210 64.000000 72.376747
v 0.340502 64.000000 70.601730
v -5.000000 64.000000 70.000000
v -10.340502 64.000000 70.601730
v -15.413210 64.000000 72.376747
v -19.963755 64.000000 75.236044
v -23.763956 64.000000 79.036245
v -26.623253 64.000000 83.586790
v -28.398270 64.000000 88.659498
v -29.000000 64.000000 94.000000
v -28.398270 64.000000 99.340502
v -26.623253 64.000000 104.413210
v -23.763956 64.000000 108.963755
v -19.963755 64.000000 112.763956
v -15.413210 64.000000 115.623253
v -10.340502 64.000000 117.398270
v -5.000000 64.000000 118.000000
v 0.340502 64.000000 117.398270
v 5.413210 64.000000 115.623253
v 9.963755 64.000000 112.763956
v 13.763956 64.000000 108.963755
v 16.623253 64.000000 104.413210
v 18.398270 64.000000 99.340502
v -5.000000 57.000000 94.000000
v -5.000000 64.000000 94.000000
f 577 578 606 605
f 578 579 607 606
f 579 580 608 607
f 580 581 609 608
f 581 582 610 609
f 582 583 611 610
f 583 584 612 611
f 584 585 613 612
f 585 586 614 613
f 586 587 615 614
f 587 588 616 615
f 588 589 617 616
f 589 590 618 617
f 590 591 619 618
f 591 592 620 619
f 592 593 621 620
f 593 594 622 621
f 594 595 623 622
f 595 596 624 623
f 596 597 625 624
f 597 598 626 625
f 598 599 627 626
f 599 600 628 627
f 600 601 629 628
f 601 602 630 629
f 602 603 631 630
f 603 604 632 631
f 604 577 605 632
f 604 603 602 601 600 599 598 597 596 595 594 593 592 591 590 589 588 587 586 585 584 583 582 581 580 579 578 577
f 605 606 607 608 609 610 611 612 613 614 615 616 617 618 619 620 621 622 623 624 625 626 627 628 629 630 631 632

o HC_PressureChamber
usemtl DarkMetal
v -106.000000 -27.000000 106.000000
v -106.000000 -26.323054 99.991935
v -106.000000 -24.326159 94.285139
v -106.000000 -21.109450 89.165775
v -106.000000 -16.834225 84.890550
v -106.000000 -11.714861 81.673841
v -106.000000 -6.008065 79.676946
v -106.000000 -0.000000 79.000000
v -106.000000 6.008065 79.676946
v -106.000000 11.714861 81.673841
v -106.000000 16.834225 84.890550
v -106.000000 21.109450 89.165775
v -106.000000 24.326159 94.285139
v -106.000000 26.323054 99.991935
v -106.000000 27.000000 106.000000
v -106.000000 26.323054 112.008065
v -106.000000 24.326159 117.714861
v -106.000000 21.109450 122.834225
v -106.000000 16.834225 127.109450
v -106.000000 11.714861 130.326159
v -106.000000 6.008065 132.323054
v -106.000000 0.000000 133.000000
v -106.000000 -6.008065 132.323054
v -106.000000 -11.714861 130.326159
v -106.000000 -16.834225 127.109450
v -106.000000 -21.109450 122.834225
v -106.000000 -24.326159 117.714861
v -106.000000 -26.323054 112.008065
v 15.000000 -27.000000 106.000000
v 15.000000 -26.323054 99.991935
v 15.000000 -24.326159 94.285139
v 15.000000 -21.109450 89.165775
v 15.000000 -16.834225 84.890550
v 15.000000 -11.714861 81.673841
v 15.000000 -6.008065 79.676946
v 15.000000 -0.000000 79.000000
v 15.000000 6.008065 79.676946
v 15.000000 11.714861 81.673841
v 15.000000 16.834225 84.890550
v 15.000000 21.109450 89.165775
v 15.000000 24.326159 94.285139
v 15.000000 26.323054 99.991935
v 15.000000 27.000000 106.000000
v 15.000000 26.323054 112.008065
v 15.000000 24.326159 117.714861
v 15.000000 21.109450 122.834225
v 15.000000 16.834225 127.109450
v 15.000000 11.714861 130.326159
v 15.000000 6.008065 132.323054
v 15.000000 0.000000 133.000000
v 15.000000 -6.008065 132.323054
v 15.000000 -11.714861 130.326159
v 15.000000 -16.834225 127.109450
v 15.000000 -21.109450 122.834225
v 15.000000 -24.326159 117.714861
v 15.000000 -26.323054 112.008065
v -106.000000 0.000000 106.000000
v 15.000000 0.000000 106.000000
f 635 636 664 663
f 636 637 665 664
f 637 638 666 665
f 638 639 667 666
f 639 640 668 667
f 640 641 669 668
f 641 642 670 669
f 642 643 671 670
f 643 644 672 671
f 644 645 673 672
f 645 646 674 673
f 646 647 675 674
f 647 648 676 675
f 648 649 677 676
f 649 650 678 677
f 650 651 679 678
f 651 652 680 679
f 652 653 681 680
f 653 654 682 681
f 654 655 683 682
f 655 656 684 683
f 656 657 685 684
f 657 658 686 685
f 658 659 687 686
f 659 660 688 687
f 660 661 689 688
f 661 662 690 689
f 662 635 663 690
f 662 661 660 659 658 657 656 655 654 653 652 651 650 649 648 647 646 645 644 643 642 641 640 639 638 637 636 635
f 663 664 665 666 667 668 669 670 671 672 673 674 675 676 677 678 679 680 681 682 683 684 685 686 687 688 689 690

o HC_PressureBand_Rear
usemtl EdgeMetal
v -101.000000 -31.000000 106.000000
v -101.000000 -30.222765 99.101851
v -101.000000 -27.930035 92.549604
v -101.000000 -24.236776 86.671816
v -101.000000 -19.328184 81.763224
v -101.000000 -13.450396 78.069965
v -101.000000 -6.898149 75.777235
v -101.000000 -0.000000 75.000000
v -101.000000 6.898149 75.777235
v -101.000000 13.450396 78.069965
v -101.000000 19.328184 81.763224
v -101.000000 24.236776 86.671816
v -101.000000 27.930035 92.549604
v -101.000000 30.222765 99.101851
v -101.000000 31.000000 106.000000
v -101.000000 30.222765 112.898149
v -101.000000 27.930035 119.450396
v -101.000000 24.236776 125.328184
v -101.000000 19.328184 130.236776
v -101.000000 13.450396 133.930035
v -101.000000 6.898149 136.222765
v -101.000000 0.000000 137.000000
v -101.000000 -6.898149 136.222765
v -101.000000 -13.450396 133.930035
v -101.000000 -19.328184 130.236776
v -101.000000 -24.236776 125.328184
v -101.000000 -27.930035 119.450396
v -101.000000 -30.222765 112.898149
v -88.000000 -31.000000 106.000000
v -88.000000 -30.222765 99.101851
v -88.000000 -27.930035 92.549604
v -88.000000 -24.236776 86.671816
v -88.000000 -19.328184 81.763224
v -88.000000 -13.450396 78.069965
v -88.000000 -6.898149 75.777235
v -88.000000 -0.000000 75.000000
v -88.000000 6.898149 75.777235
v -88.000000 13.450396 78.069965
v -88.000000 19.328184 81.763224
v -88.000000 24.236776 86.671816
v -88.000000 27.930035 92.549604
v -88.000000 30.222765 99.101851
v -88.000000 31.000000 106.000000
v -88.000000 30.222765 112.898149
v -88.000000 27.930035 119.450396
v -88.000000 24.236776 125.328184
v -88.000000 19.328184 130.236776
v -88.000000 13.450396 133.930035
v -88.000000 6.898149 136.222765
v -88.000000 0.000000 137.000000
v -88.000000 -6.898149 136.222765
v -88.000000 -13.450396 133.930035
v -88.000000 -19.328184 130.236776
v -88.000000 -24.236776 125.328184
v -88.000000 -27.930035 119.450396
v -88.000000 -30.222765 112.898149
v -101.000000 0.000000 106.000000
v -88.000000 0.000000 106.000000
f 693 694 722 721
f 694 695 723 722
f 695 696 724 723
f 696 697 725 724
f 697 698 726 725
f 698 699 727 726
f 699 700 728 727
f 700 701 729 728
f 701 702 730 729
f 702 703 731 730
f 703 704 732 731
f 704 705 733 732
f 705 706 734 733
f 706 707 735 734
f 707 708 736 735
f 708 709 737 736
f 709 710 738 737
f 710 711 739 738
f 711 712 740 739
f 712 713 741 740
f 713 714 742 741
f 714 715 743 742
f 715 716 744 743
f 716 717 745 744
f 717 718 746 745
f 718 719 747 746
f 719 720 748 747
f 720 693 721 748
f 720 719 718 717 716 715 714 713 712 711 710 709 708 707 706 705 704 703 702 701 700 699 698 697 696 695 694 693
f 721 722 723 724 725 726 727 728 729 730 731 732 733 734 735 736 737 738 739 740 741 742 743 744 745 746 747 748

o HC_PressureBand_Front
usemtl EdgeMetal
v 3.000000 -31.000000 106.000000
v 3.000000 -30.222765 99.101851
v 3.000000 -27.930035 92.549604
v 3.000000 -24.236776 86.671816
v 3.000000 -19.328184 81.763224
v 3.000000 -13.450396 78.069965
v 3.000000 -6.898149 75.777235
v 3.000000 -0.000000 75.000000
v 3.000000 6.898149 75.777235
v 3.000000 13.450396 78.069965
v 3.000000 19.328184 81.763224
v 3.000000 24.236776 86.671816
v 3.000000 27.930035 92.549604
v 3.000000 30.222765 99.101851
v 3.000000 31.000000 106.000000
v 3.000000 30.222765 112.898149
v 3.000000 27.930035 119.450396
v 3.000000 24.236776 125.328184
v 3.000000 19.328184 130.236776
v 3.000000 13.450396 133.930035
v 3.000000 6.898149 136.222765
v 3.000000 0.000000 137.000000
v 3.000000 -6.898149 136.222765
v 3.000000 -13.450396 133.930035
v 3.000000 -19.328184 130.236776
v 3.000000 -24.236776 125.328184
v 3.000000 -27.930035 119.450396
v 3.000000 -30.222765 112.898149
v 17.000000 -31.000000 106.000000
v 17.000000 -30.222765 99.101851
v 17.000000 -27.930035 92.549604
v 17.000000 -24.236776 86.671816
v 17.000000 -19.328184 81.763224
v 17.000000 -13.450396 78.069965
v 17.000000 -6.898149 75.777235
v 17.000000 -0.000000 75.000000
v 17.000000 6.898149 75.777235
v 17.000000 13.450396 78.069965
v 17.000000 19.328184 81.763224
v 17.000000 24.236776 86.671816
v 17.000000 27.930035 92.549604
v 17.000000 30.222765 99.101851
v 17.000000 31.000000 106.000000
v 17.000000 30.222765 112.898149
v 17.000000 27.930035 119.450396
v 17.000000 24.236776 125.328184
v 17.000000 19.328184 130.236776
v 17.000000 13.450396 133.930035
v 17.000000 6.898149 136.222765
v 17.000000 0.000000 137.000000
v 17.000000 -6.898149 136.222765
v 17.000000 -13.450396 133.930035
v 17.000000 -19.328184 130.236776
v 17.000000 -24.236776 125.328184
v 17.000000 -27.930035 119.450396
v 17.000000 -30.222765 112.898149
v 3.000000 0.000000 106.000000
v 17.000000 0.000000 106.000000
f 751 752 780 779
f 752 753 781 780
f 753 754 782 781
f 754 755 783 782
f 755 756 784 783
f 756 757 785 784
f 757 758 786 785
f 758 759 787 786
f 759 760 788 787
f 760 761 789 788
f 761 762 790 789
f 762 763 791 790
f 763 764 792 791
f 764 765 793 792
f 765 766 794 793
f 766 767 795 794
f 767 768 796 795
f 768 769 797 796
f 769 770 798 797
f 770 771 799 798
f 771 772 800 799
f 772 773 801 800
f 773 774 802 801
f 774 775 803 802
f 775 776 804 803
f 776 777 805 804
f 777 778 806 805
f 778 751 779 806
f 778 777 776 775 774 773 772 771 770 769 768 767 766 765 764 763 762 761 760 759 758 757 756 755 754 753 752 751
f 779 780 781 782 783 784 785 786 787 788 789 790 791 792 793 794 795 796 797 798 799 800 801 802 803 804 805 806

o HC_LinearRam
usemtl EdgeMetal
v 13.000000 -8.000000 106.000000
v 13.000000 -7.517541 103.263839
v 13.000000 -6.128356 100.857699
v 13.000000 -4.000000 99.071797
v 13.000000 -1.389185 98.121538
v 13.000000 1.389185 98.121538
v 13.000000 4.000000 99.071797
v 13.000000 6.128356 100.857699
v 13.000000 7.517541 103.263839
v 13.000000 8.000000 106.000000
v 13.000000 7.517541 108.736161
v 13.000000 6.128356 111.142301
v 13.000000 4.000000 112.928203
v 13.000000 1.389185 113.878462
v 13.000000 -1.389185 113.878462
v 13.000000 -4.000000 112.928203
v 13.000000 -6.128356 111.142301
v 13.000000 -7.517541 108.736161
v 64.000000 -8.000000 106.000000
v 64.000000 -7.517541 103.263839
v 64.000000 -6.128356 100.857699
v 64.000000 -4.000000 99.071797
v 64.000000 -1.389185 98.121538
v 64.000000 1.389185 98.121538
v 64.000000 4.000000 99.071797
v 64.000000 6.128356 100.857699
v 64.000000 7.517541 103.263839
v 64.000000 8.000000 106.000000
v 64.000000 7.517541 108.736161
v 64.000000 6.128356 111.142301
v 64.000000 4.000000 112.928203
v 64.000000 1.389185 113.878462
v 64.000000 -1.389185 113.878462
v 64.000000 -4.000000 112.928203
v 64.000000 -6.128356 111.142301
v 64.000000 -7.517541 108.736161
v 13.000000 0.000000 106.000000
v 64.000000 0.000000 106.000000
f 809 810 828 827
f 810 811 829 828
f 811 812 830 829
f 812 813 831 830
f 813 814 832 831
f 814 815 833 832
f 815 816 834 833
f 816 817 835 834
f 817 818 836 835
f 818 819 837 836
f 819 820 838 837
f 820 821 839 838
f 821 822 840 839
f 822 823 841 840
f 823 824 842 841
f 824 825 843 842
f 825 826 844 843
f 826 809 827 844
f 826 825 824 823 822 821 820 819 818 817 816 815 814 813 812 811 810 809
f 827 828 829 830 831 832 833 834 835 836 837 838 839 840 841 842 843 844

o HC_Guide_Bottom
usemtl TealPaint
v 18.000000 -9.000000 76.000000
v 142.000000 -9.000000 76.000000
v 142.000000 9.000000 76.000000
v 18.000000 9.000000 76.000000
v 18.000000 -9.000000 84.000000
v 142.000000 -9.000000 84.000000
v 142.000000 9.000000 84.000000
v 18.000000 9.000000 84.000000
f 847 850 849 848
f 851 852 853 854
f 847 848 852 851
f 848 849 853 852
f 849 850 854 853
f 850 847 851 854

o HC_Guide_Left
usemtl TealPaint
v 18.000000 -36.000000 92.000000
v 142.000000 -36.000000 92.000000
v 142.000000 -28.000000 92.000000
v 18.000000 -28.000000 92.000000
v 18.000000 -36.000000 114.000000
v 142.000000 -36.000000 114.000000
v 142.000000 -28.000000 114.000000
v 18.000000 -28.000000 114.000000
f 855 858 857 856
f 859 860 861 862
f 855 856 860 859
f 856 857 861 860
f 857 858 862 861
f 858 855 859 862

o HC_Guide_Right
usemtl TealPaint
v 18.000000 28.000000 92.000000
v 142.000000 28.000000 92.000000
v 142.000000 36.000000 92.000000
v 18.000000 36.000000 92.000000
v 18.000000 28.000000 114.000000
v 142.000000 28.000000 114.000000
v 142.000000 36.000000 114.000000
v 18.000000 36.000000 114.000000
f 863 866 865 864
f 867 868 869 870
f 863 864 868 867
f 864 865 869 868
f 865 866 870 869
f 866 863 867 870

o HC_MuzzleBrace_Left
usemtl EdgeMetal
v 132.000000 -38.000000 80.000000
v 142.000000 -38.000000 80.000000
v 142.000000 -26.000000 80.000000
v 132.000000 -26.000000 80.000000
v 132.000000 -38.000000 124.000000
v 142.000000 -38.000000 124.000000
v 142.000000 -26.000000 124.000000
v 132.000000 -26.000000 124.000000
f 871 874 873 872
f 875 876 877 878
f 871 872 876 875
f 872 873 877 876
f 873 874 878 877
f 874 871 875 878

o HC_MuzzleBrace_Right
usemtl EdgeMetal
v 132.000000 26.000000 80.000000
v 142.000000 26.000000 80.000000
v 142.000000 38.000000 80.000000
v 132.000000 38.000000 80.000000
v 132.000000 26.000000 124.000000
v 142.000000 26.000000 124.000000
v 142.000000 38.000000 124.000000
v 132.000000 38.000000 124.000000
f 879 882 881 880
f 883 884 885 886
f 879 880 884 883
f 880 881 885 884
f 881 882 886 885
f 882 879 883 886

o HC_ConnectorProxy_Body
usemtl ConnectorProxy
v 69.000000 -23.000000 106.000000
v 69.000000 -22.216294 100.047162
v 69.000000 -19.918584 94.500000
v 69.000000 -16.263456 89.736544
v 69.000000 -11.500000 86.081416
v 69.000000 -5.952838 83.783706
v 69.000000 -0.000000 83.000000
v 69.000000 5.952838 83.783706
v 69.000000 11.500000 86.081416
v 69.000000 16.263456 89.736544
v 69.000000 19.918584 94.500000
v 69.000000 22.216294 100.047162
v 69.000000 23.000000 106.000000
v 69.000000 22.216294 111.952838
v 69.000000 19.918584 117.500000
v 69.000000 16.263456 122.263456
v 69.000000 11.500000 125.918584
v 69.000000 5.952838 128.216294
v 69.000000 0.000000 129.000000
v 69.000000 -5.952838 128.216294
v 69.000000 -11.500000 125.918584
v 69.000000 -16.263456 122.263456
v 69.000000 -19.918584 117.500000
v 69.000000 -22.216294 111.952838
v 123.000000 -23.000000 106.000000
v 123.000000 -22.216294 100.047162
v 123.000000 -19.918584 94.500000
v 123.000000 -16.263456 89.736544
v 123.000000 -11.500000 86.081416
v 123.000000 -5.952838 83.783706
v 123.000000 -0.000000 83.000000
v 123.000000 5.952838 83.783706
v 123.000000 11.500000 86.081416
v 123.000000 16.263456 89.736544
v 123.000000 19.918584 94.500000
v 123.000000 22.216294 100.047162
v 123.000000 23.000000 106.000000
v 123.000000 22.216294 111.952838
v 123.000000 19.918584 117.500000
v 123.000000 16.263456 122.263456
v 123.000000 11.500000 125.918584
v 123.000000 5.952838 128.216294
v 123.000000 0.000000 129.000000
v 123.000000 -5.952838 128.216294
v 123.000000 -11.500000 125.918584
v 123.000000 -16.263456 122.263456
v 123.000000 -19.918584 117.500000
v 123.000000 -22.216294 111.952838
v 69.000000 0.000000 106.000000
v 123.000000 0.000000 106.000000
f 887 888 912 911
f 888 889 913 912
f 889 890 914 913
f 890 891 915 914
f 891 892 916 915
f 892 893 917 916
f 893 894 918 917
f 894 895 919 918
f 895 896 920 919
f 896 897 921 920
f 897 898 922 921
f 898 899 923 922
f 899 900 924 923
f 900 901 925 924
f 901 902 926 925
f 902 903 927 926
f 903 904 928 927
f 904 905 929 928
f 905 906 930 929
f 906 907 931 930
f 907 908 932 931
f 908 909 933 932
f 909 910 934 933
f 910 887 911 934
f 910 909 908 907 906 905 904 903 902 901 900 899 898 897 896 895 894 893 892 891 890 889 888 887
f 911 912 913 914 915 916 917 918 919 920 921 922 923 924 925 926 927 928 929 930 931 932 933 934

o HC_ConnectorProxy_Collar
usemtl ConnectorProxy
v 112.000000 -27.000000 106.000000
v 112.000000 -26.079997 99.011886
v 112.000000 -23.382686 92.500000
v 112.000000 -19.091883 86.908117
v 112.000000 -13.500000 82.617314
v 112.000000 -6.988114 79.920003
v 112.000000 -0.000000 79.000000
v 112.000000 6.988114 79.920003
v 112.000000 13.500000 82.617314
v 112.000000 19.091883 86.908117
v 112.000000 23.382686 92.500000
v 112.000000 26.079997 99.011886
v 112.000000 27.000000 106.000000
v 112.000000 26.079997 112.988114
v 112.000000 23.382686 119.500000
v 112.000000 19.091883 125.091883
v 112.000000 13.500000 129.382686
v 112.000000 6.988114 132.079997
v 112.000000 0.000000 133.000000
v 112.000000 -6.988114 132.079997
v 112.000000 -13.500000 129.382686
v 112.000000 -19.091883 125.091883
v 112.000000 -23.382686 119.500000
v 112.000000 -26.079997 112.988114
v 124.000000 -27.000000 106.000000
v 124.000000 -26.079997 99.011886
v 124.000000 -23.382686 92.500000
v 124.000000 -19.091883 86.908117
v 124.000000 -13.500000 82.617314
v 124.000000 -6.988114 79.920003
v 124.000000 -0.000000 79.000000
v 124.000000 6.988114 79.920003
v 124.000000 13.500000 82.617314
v 124.000000 19.091883 86.908117
v 124.000000 23.382686 92.500000
v 124.000000 26.079997 99.011886
v 124.000000 27.000000 106.000000
v 124.000000 26.079997 112.988114
v 124.000000 23.382686 119.500000
v 124.000000 19.091883 125.091883
v 124.000000 13.500000 129.382686
v 124.000000 6.988114 132.079997
v 124.000000 0.000000 133.000000
v 124.000000 -6.988114 132.079997
v 124.000000 -13.500000 129.382686
v 124.000000 -19.091883 125.091883
v 124.000000 -23.382686 119.500000
v 124.000000 -26.079997 112.988114
v 112.000000 0.000000 106.000000
v 124.000000 0.000000 106.000000
f 937 938 962 961
f 938 939 963 962
f 939 940 964 963
f 940 941 965 964
f 941 942 966 965
f 942 943 967 966
f 943 944 968 967
f 944 945 969 968
f 945 946 970 969
f 946 947 971 970
f 947 948 972 971
f 948 949 973 972
f 949 950 974 973
f 950 951 975 974
f 951 952 976 975
f 952 953 977 976
f 953 954 978 977
f 954 955 979 978
f 955 956 980 979
f 956 957 981 980
f 957 958 982 981
f 958 959 983 982
f 959 960 984 983
f 960 937 961 984
f 960 959 958 957 956 955 954 953 952 951 950 949 948 947 946 945 944 943 942 941 940 939 938 937
f 961 962 963 964 965 966 967 968 969 970 971 972 973 974 975 976 977 978 979 980 981 982 983 984

o HC_ConnectorProxy_Handle_Left
usemtl ConnectorProxy
v 91.000000 -21.000000 125.000000
v 101.000000 -21.000000 125.000000
v 101.000000 -13.000000 125.000000
v 91.000000 -13.000000 125.000000
v 91.000000 -21.000000 155.000000
v 101.000000 -21.000000 155.000000
v 101.000000 -13.000000 155.000000
v 91.000000 -13.000000 155.000000
f 987 990 989 988
f 991 992 993 994
f 987 988 992 991
f 988 989 993 992
f 989 990 994 993
f 990 987 991 994

o HC_ConnectorProxy_Handle_Right
usemtl ConnectorProxy
v 91.000000 13.000000 125.000000
v 101.000000 13.000000 125.000000
v 101.000000 21.000000 125.000000
v 91.000000 21.000000 125.000000
v 91.000000 13.000000 155.000000
v 101.000000 13.000000 155.000000
v 101.000000 21.000000 155.000000
v 91.000000 21.000000 155.000000
f 995 998 997 996
f 999 1000 1001 1002
f 995 996 1000 999
f 996 997 1001 1000
f 997 998 1002 1001
f 998 995 999 1002

o HC_ConnectorProxy_Handle_Top
usemtl ConnectorProxy
v 91.000000 -21.000000 151.000000
v 101.000000 -21.000000 151.000000
v 101.000000 21.000000 151.000000
v 91.000000 21.000000 151.000000
v 91.000000 -21.000000 159.000000
v 101.000000 -21.000000 159.000000
v 101.000000 21.000000 159.000000
v 91.000000 21.000000 159.000000
f 1003 1006 1005 1004
f 1007 1008 1009 1010
f 1003 1004 1008 1007
f 1004 1005 1009 1008
f 1005 1006 1010 1009
f 1006 1003 1007 1010

o HC_StockMooring_BaseProxy
usemtl SocketProxy
v -69.000000 -35.000000 23.000000
v -68.147549 -42.565712 23.000000
v -65.632942 -49.752047 23.000000
v -61.582270 -56.198653 23.000000
v -56.198653 -61.582270 23.000000
v -49.752047 -65.632942 23.000000
v -42.565712 -68.147549 23.000000
v -35.000000 -69.000000 23.000000
v -27.434288 -68.147549 23.000000
v -20.247953 -65.632942 23.000000
v -13.801347 -61.582270 23.000000
v -8.417730 -56.198653 23.000000
v -4.367058 -49.752047 23.000000
v -1.852451 -42.565712 23.000000
v -1.000000 -35.000000 23.000000
v -1.852451 -27.434288 23.000000
v -4.367058 -20.247953 23.000000
v -8.417730 -13.801347 23.000000
v -13.801347 -8.417730 23.000000
v -20.247953 -4.367058 23.000000
v -27.434288 -1.852451 23.000000
v -35.000000 -1.000000 23.000000
v -42.565712 -1.852451 23.000000
v -49.752047 -4.367058 23.000000
v -56.198653 -8.417730 23.000000
v -61.582270 -13.801347 23.000000
v -65.632942 -20.247953 23.000000
v -68.147549 -27.434288 23.000000
v -69.000000 -35.000000 39.000000
v -68.147549 -42.565712 39.000000
v -65.632942 -49.752047 39.000000
v -61.582270 -56.198653 39.000000
v -56.198653 -61.582270 39.000000
v -49.752047 -65.632942 39.000000
v -42.565712 -68.147549 39.000000
v -35.000000 -69.000000 39.000000
v -27.434288 -68.147549 39.000000
v -20.247953 -65.632942 39.000000
v -13.801347 -61.582270 39.000000
v -8.417730 -56.198653 39.000000
v -4.367058 -49.752047 39.000000
v -1.852451 -42.565712 39.000000
v -1.000000 -35.000000 39.000000
v -1.852451 -27.434288 39.000000
v -4.367058 -20.247953 39.000000
v -8.417730 -13.801347 39.000000
v -13.801347 -8.417730 39.000000
v -20.247953 -4.367058 39.000000
v -27.434288 -1.852451 39.000000
v -35.000000 -1.000000 39.000000
v -42.565712 -1.852451 39.000000
v -49.752047 -4.367058 39.000000
v -56.198653 -8.417730 39.000000
v -61.582270 -13.801347 39.000000
v -65.632942 -20.247953 39.000000
v -68.147549 -27.434288 39.000000
v -35.000000 -35.000000 23.000000
v -35.000000 -35.000000 39.000000
f 1011 1012 1040 1039
f 1012 1013 1041 1040
f 1013 1014 1042 1041
f 1014 1015 1043 1042
f 1015 1016 1044 1043
f 1016 1017 1045 1044
f 1017 1018 1046 1045
f 1018 1019 1047 1046
f 1019 1020 1048 1047
f 1020 1021 1049 1048
f 1021 1022 1050 1049
f 1022 1023 1051 1050
f 1023 1024 1052 1051
f 1024 1025 1053 1052
f 1025 1026 1054 1053
f 1026 1027 1055 1054
f 1027 1028 1056 1055
f 1028 1029 1057 1056
f 1029 1030 1058 1057
f 1030 1031 1059 1058
f 1031 1032 1060 1059
f 1032 1033 1061 1060
f 1033 1034 1062 1061
f 1034 1035 1063 1062
f 1035 1036 1064 1063
f 1036 1037 1065 1064
f 1037 1038 1066 1065
f 1038 1011 1039 1066
f 1038 1037 1036 1035 1034 1033 1032 1031 1030 1029 1028 1027 1026 1025 1024 1023 1022 1021 1020 1019 1018 1017 1016 1015 1014 1013 1012 1011
f 1039 1040 1041 1042 1043 1044 1045 1046 1047 1048 1049 1050 1051 1052 1053 1054 1055 1056 1057 1058 1059 1060 1061 1062 1063 1064 1065 1066

o HC_StockMooring_RecessProxy
usemtl DarkMetal
v -60.000000 -35.000000 37.000000
v -59.373198 -40.563023 37.000000
v -57.524222 -45.847093 37.000000
v -54.545787 -50.587245 37.000000
v -50.587245 -54.545787 37.000000
v -45.847093 -57.524222 37.000000
v -40.563023 -59.373198 37.000000
v -35.000000 -60.000000 37.000000
v -29.436977 -59.373198 37.000000
v -24.152907 -57.524222 37.000000
v -19.412755 -54.545787 37.000000
v -15.454213 -50.587245 37.000000
v -12.475778 -45.847093 37.000000
v -10.626802 -40.563023 37.000000
v -10.000000 -35.000000 37.000000
v -10.626802 -29.436977 37.000000
v -12.475778 -24.152907 37.000000
v -15.454213 -19.412755 37.000000
v -19.412755 -15.454213 37.000000
v -24.152907 -12.475778 37.000000
v -29.436977 -10.626802 37.000000
v -35.000000 -10.000000 37.000000
v -40.563023 -10.626802 37.000000
v -45.847093 -12.475778 37.000000
v -50.587245 -15.454213 37.000000
v -54.545787 -19.412755 37.000000
v -57.524222 -24.152907 37.000000
v -59.373198 -29.436977 37.000000
v -60.000000 -35.000000 49.000000
v -59.373198 -40.563023 49.000000
v -57.524222 -45.847093 49.000000
v -54.545787 -50.587245 49.000000
v -50.587245 -54.545787 49.000000
v -45.847093 -57.524222 49.000000
v -40.563023 -59.373198 49.000000
v -35.000000 -60.000000 49.000000
v -29.436977 -59.373198 49.000000
v -24.152907 -57.524222 49.000000
v -19.412755 -54.545787 49.000000
v -15.454213 -50.587245 49.000000
v -12.475778 -45.847093 49.000000
v -10.626802 -40.563023 49.000000
v -10.000000 -35.000000 49.000000
v -10.626802 -29.436977 49.000000
v -12.475778 -24.152907 49.000000
v -15.454213 -19.412755 49.000000
v -19.412755 -15.454213 49.000000
v -24.152907 -12.475778 49.000000
v -29.436977 -10.626802 49.000000
v -35.000000 -10.000000 49.000000
v -40.563023 -10.626802 49.000000
v -45.847093 -12.475778 49.000000
v -50.587245 -15.454213 49.000000
v -54.545787 -19.412755 49.000000
v -57.524222 -24.152907 49.000000
v -59.373198 -29.436977 49.000000
v -35.000000 -35.000000 37.000000
v -35.000000 -35.000000 49.000000
f 1069 1070 1098 1097
f 1070 1071 1099 1098
f 1071 1072 1100 1099
f 1072 1073 1101 1100
f 1073 1074 1102 1101
f 1074 1075 1103 1102
f 1075 1076 1104 1103
f 1076 1077 1105 1104
f 1077 1078 1106 1105
f 1078 1079 1107 1106
f 1079 1080 1108 1107
f 1080 1081 1109 1108
f 1081 1082 1110 1109
f 1082 1083 1111 1110
f 1083 1084 1112 1111
f 1084 1085 1113 1112
f 1085 1086 1114 1113
f 1086 1087 1115 1114
f 1087 1088 1116 1115
f 1088 1089 1117 1116
f 1089 1090 1118 1117
f 1090 1091 1119 1118
f 1091 1092 1120 1119
f 1092 1093 1121 1120
f 1093 1094 1122 1121
f 1094 1095 1123 1122
f 1095 1096 1124 1123
f 1096 1069 1097 1124
f 1096 1095 1094 1093 1092 1091 1090 1089 1088 1087 1086 1085 1084 1083 1082 1081 1080 1079 1078 1077 1076 1075 1074 1073 1072 1071 1070 1069
f 1097 1098 1099 1100 1101 1102 1103 1104 1105 1106 1107 1108 1109 1110 1111 1112 1113 1114 1115 1116 1117 1118 1119 1120 1121 1122 1123 1124

o HC_StockMooring_LipProxy
usemtl EdgeMetal
v -6.000000 -35.000000 52.000000
v -7.464466 -35.000000 55.535534
v -11.000000 -35.000000 57.000000
v -14.535534 -35.000000 55.535534
v -16.000000 -35.000000 52.000000
v -14.535534 -35.000000 48.464466
v -11.000000 -35.000000 47.000000
v -7.464466 -35.000000 48.464466
v -6.727091 -28.546893 52.000000
v -8.154839 -28.872767 55.535534
v -11.601730 -29.659498 57.000000
v -15.048621 -30.446228 55.535534
v -16.476370 -30.772102 52.000000
v -15.048621 -30.446228 48.464466
v -11.601730 -29.659498 47.000000
v -8.154839 -28.872767 48.464466
v -8.871903 -22.417372 52.000000
v -10.191341 -23.052780 55.535534
v -13.376747 -24.586790 57.000000
v -16.562153 -26.120801 55.535534
v -17.881592 -26.756209 52.000000
v -16.562153 -26.120801 48.464466
v -13.376747 -24.586790 47.000000
v -10.191341 -23.052780 48.464466
v -12.326887 -16.918796 52.000000
v -13.471853 -17.831875 55.535534
v -16.236044 -20.036245 57.000000
v -19.000236 -22.240614 55.535534
v -20.145202 -23.153694 52.000000
v -19.000236 -22.240614 48.464466
v -16.236044 -20.036245 47.000000
v -13.471853 -17.831875 48.464466
v -16.918796 -12.326887 52.000000
v -17.831875 -13.471853 55.535534
v -20.036245 -16.236044 57.000000
v -22.240614 -19.000236 55.535534
v -23.153694 -20.145202 52.000000
v -22.240614 -19.000236 48.464466
v -20.036245 -16.236044 47.000000
v -17.831875 -13.471853 48.464466
v -22.417372 -8.871903 52.000000
v -23.052780 -10.191341 55.535534
v -24.586790 -13.376747 57.000000
v -26.120801 -16.562153 55.535534
v -26.756209 -17.881592 52.000000
v -26.120801 -16.562153 48.464466
v -24.586790 -13.376747 47.000000
v -23.052780 -10.191341 48.464466
v -28.546893 -6.727091 52.000000
v -28.872767 -8.154839 55.535534
v -29.659498 -11.601730 57.000000
v -30.446228 -15.048621 55.535534
v -30.772102 -16.476370 52.000000
v -30.446228 -15.048621 48.464466
v -29.659498 -11.601730 47.000000
v -28.872767 -8.154839 48.464466
v -35.000000 -6.000000 52.000000
v -35.000000 -7.464466 55.535534
v -35.000000 -11.000000 57.000000
v -35.000000 -14.535534 55.535534
v -35.000000 -16.000000 52.000000
v -35.000000 -14.535534 48.464466
v -35.000000 -11.000000 47.000000
v -35.000000 -7.464466 48.464466
v -41.453107 -6.727091 52.000000
v -41.127233 -8.154839 55.535534
v -40.340502 -11.601730 57.000000
v -39.553772 -15.048621 55.535534
v -39.227898 -16.476370 52.000000
v -39.553772 -15.048621 48.464466
v -40.340502 -11.601730 47.000000
v -41.127233 -8.154839 48.464466
v -47.582628 -8.871903 52.000000
v -46.947220 -10.191341 55.535534
v -45.413210 -13.376747 57.000000
v -43.879199 -16.562153 55.535534
v -43.243791 -17.881592 52.000000
v -43.879199 -16.562153 48.464466
v -45.413210 -13.376747 47.000000
v -46.947220 -10.191341 48.464466
v -53.081204 -12.326887 52.000000
v -52.168125 -13.471853 55.535534
v -49.963755 -16.236044 57.000000
v -47.759386 -19.000236 55.535534
v -46.846306 -20.145202 52.000000
v -47.759386 -19.000236 48.464466
v -49.963755 -16.236044 47.000000
v -52.168125 -13.471853 48.464466
v -57.673113 -16.918796 52.000000
v -56.528147 -17.831875 55.535534
v -53.763956 -20.036245 57.000000
v -50.999764 -22.240614 55.535534
v -49.854798 -23.153694 52.000000
v -50.999764 -22.240614 48.464466
v -53.763956 -20.036245 47.000000
v -56.528147 -17.831875 48.464466
v -61.128097 -22.417372 52.000000
v -59.808659 -23.052780 55.535534
v -56.623253 -24.586790 57.000000
v -53.437847 -26.120801 55.535534
v -52.118408 -26.756209 52.000000
v -53.437847 -26.120801 48.464466
v -56.623253 -24.586790 47.000000
v -59.808659 -23.052780 48.464466
v -63.272909 -28.546893 52.000000
v -61.845161 -28.872767 55.535534
v -58.398270 -29.659498 57.000000
v -54.951379 -30.446228 55.535534
v -53.523630 -30.772102 52.000000
v -54.951379 -30.446228 48.464466
v -58.398270 -29.659498 47.000000
v -61.845161 -28.872767 48.464466
v -64.000000 -35.000000 52.000000
v -62.535534 -35.000000 55.535534
v -59.000000 -35.000000 57.000000
v -55.464466 -35.000000 55.535534
v -54.000000 -35.000000 52.000000
v -55.464466 -35.000000 48.464466
v -59.000000 -35.000000 47.000000
v -62.535534 -35.000000 48.464466
v -63.272909 -41.453107 52.000000
v -61.845161 -41.127233 55.535534
v -58.398270 -40.340502 57.000000
v -54.951379 -39.553772 55.535534
v -53.523630 -39.227898 52.000000
v -54.951379 -39.553772 48.464466
v -58.398270 -40.340502 47.000000
v -61.845161 -41.127233 48.464466
v -61.128097 -47.582628 52.000000
v -59.808659 -46.947220 55.535534
v -56.623253 -45.413210 57.000000
v -53.437847 -43.879199 55.535534
v -52.118408 -43.243791 52.000000
v -53.437847 -43.879199 48.464466
v -56.623253 -45.413210 47.000000
v -59.808659 -46.947220 48.464466
v -57.673113 -53.081204 52.000000
v -56.528147 -52.168125 55.535534
v -53.763956 -49.963755 57.000000
v -50.999764 -47.759386 55.535534
v -49.854798 -46.846306 52.000000
v -50.999764 -47.759386 48.464466
v -53.763956 -49.963755 47.000000
v -56.528147 -52.168125 48.464466
v -53.081204 -57.673113 52.000000
v -52.168125 -56.528147 55.535534
v -49.963755 -53.763956 57.000000
v -47.759386 -50.999764 55.535534
v -46.846306 -49.854798 52.000000
v -47.759386 -50.999764 48.464466
v -49.963755 -53.763956 47.000000
v -52.168125 -56.528147 48.464466
v -47.582628 -61.128097 52.000000
v -46.947220 -59.808659 55.535534
v -45.413210 -56.623253 57.000000
v -43.879199 -53.437847 55.535534
v -43.243791 -52.118408 52.000000
v -43.879199 -53.437847 48.464466
v -45.413210 -56.623253 47.000000
v -46.947220 -59.808659 48.464466
v -41.453107 -63.272909 52.000000
v -41.127233 -61.845161 55.535534
v -40.340502 -58.398270 57.000000
v -39.553772 -54.951379 55.535534
v -39.227898 -53.523630 52.000000
v -39.553772 -54.951379 48.464466
v -40.340502 -58.398270 47.000000
v -41.127233 -61.845161 48.464466
v -35.000000 -64.000000 52.000000
v -35.000000 -62.535534 55.535534
v -35.000000 -59.000000 57.000000
v -35.000000 -55.464466 55.535534
v -35.000000 -54.000000 52.000000
v -35.000000 -55.464466 48.464466
v -35.000000 -59.000000 47.000000
v -35.000000 -62.535534 48.464466
v -28.546893 -63.272909 52.000000
v -28.872767 -61.845161 55.535534
v -29.659498 -58.398270 57.000000
v -30.446228 -54.951379 55.535534
v -30.772102 -53.523630 52.000000
v -30.446228 -54.951379 48.464466
v -29.659498 -58.398270 47.000000
v -28.872767 -61.845161 48.464466
v -22.417372 -61.128097 52.000000
v -23.052780 -59.808659 55.535534
v -24.586790 -56.623253 57.000000
v -26.120801 -53.437847 55.535534
v -26.756209 -52.118408 52.000000
v -26.120801 -53.437847 48.464466
v -24.586790 -56.623253 47.000000
v -23.052780 -59.808659 48.464466
v -16.918796 -57.673113 52.000000
v -17.831875 -56.528147 55.535534
v -20.036245 -53.763956 57.000000
v -22.240614 -50.999764 55.535534
v -23.153694 -49.854798 52.000000
v -22.240614 -50.999764 48.464466
v -20.036245 -53.763956 47.000000
v -17.831875 -56.528147 48.464466
v -12.326887 -53.081204 52.000000
v -13.471853 -52.168125 55.535534
v -16.236044 -49.963755 57.000000
v -19.000236 -47.759386 55.535534
v -20.145202 -46.846306 52.000000
v -19.000236 -47.759386 48.464466
v -16.236044 -49.963755 47.000000
v -13.471853 -52.168125 48.464466
v -8.871903 -47.582628 52.000000
v -10.191341 -46.947220 55.535534
v -13.376747 -45.413210 57.000000
v -16.562153 -43.879199 55.535534
v -17.881592 -43.243791 52.000000
v -16.562153 -43.879199 48.464466
v -13.376747 -45.413210 47.000000
v -10.191341 -46.947220 48.464466
v -6.727091 -41.453107 52.000000
v -8.154839 -41.127233 55.535534
v -11.601730 -40.340502 57.000000
v -15.048621 -39.553772 55.535534
v -16.476370 -39.227898 52.000000
v -15.048621 -39.553772 48.464466
v -11.601730 -40.340502 47.000000
v -8.154839 -41.127233 48.464466
f 1127 1135 1136 1128
f 1128 1136 1137 1129
f 1129 1137 1138 1130
f 1130 1138 1139 1131
f 1131 1139 1140 1132
f 1132 1140 1141 1133
f 1133 1141 1142 1134
f 1134 1142 1135 1127
f 1135 1143 1144 1136
f 1136 1144 1145 1137
f 1137 1145 1146 1138
f 1138 1146 1147 1139
f 1139 1147 1148 1140
f 1140 1148 1149 1141
f 1141 1149 1150 1142
f 1142 1150 1143 1135
f 1143 1151 1152 1144
f 1144 1152 1153 1145
f 1145 1153 1154 1146
f 1146 1154 1155 1147
f 1147 1155 1156 1148
f 1148 1156 1157 1149
f 1149 1157 1158 1150
f 1150 1158 1151 1143
f 1151 1159 1160 1152
f 1152 1160 1161 1153
f 1153 1161 1162 1154
f 1154 1162 1163 1155
f 1155 1163 1164 1156
f 1156 1164 1165 1157
f 1157 1165 1166 1158
f 1158 1166 1159 1151
f 1159 1167 1168 1160
f 1160 1168 1169 1161
f 1161 1169 1170 1162
f 1162 1170 1171 1163
f 1163 1171 1172 1164
f 1164 1172 1173 1165
f 1165 1173 1174 1166
f 1166 1174 1167 1159
f 1167 1175 1176 1168
f 1168 1176 1177 1169
f 1169 1177 1178 1170
f 1170 1178 1179 1171
f 1171 1179 1180 1172
f 1172 1180 1181 1173
f 1173 1181 1182 1174
f 1174 1182 1175 1167
f 1175 1183 1184 1176
f 1176 1184 1185 1177
f 1177 1185 1186 1178
f 1178 1186 1187 1179
f 1179 1187 1188 1180
f 1180 1188 1189 1181
f 1181 1189 1190 1182
f 1182 1190 1183 1175
f 1183 1191 1192 1184
f 1184 1192 1193 1185
f 1185 1193 1194 1186
f 1186 1194 1195 1187
f 1187 1195 1196 1188
f 1188 1196 1197 1189
f 1189 1197 1198 1190
f 1190 1198 1191 1183
f 1191 1199 1200 1192
f 1192 1200 1201 1193
f 1193 1201 1202 1194
f 1194 1202 1203 1195
f 1195 1203 1204 1196
f 1196 1204 1205 1197
f 1197 1205 1206 1198
f 1198 1206 1199 1191
f 1199 1207 1208 1200
f 1200 1208 1209 1201
f 1201 1209 1210 1202
f 1202 1210 1211 1203
f 1203 1211 1212 1204
f 1204 1212 1213 1205
f 1205 1213 1214 1206
f 1206 1214 1207 1199
f 1207 1215 1216 1208
f 1208 1216 1217 1209
f 1209 1217 1218 1210
f 1210 1218 1219 1211
f 1211 1219 1220 1212
f 1212 1220 1221 1213
f 1213 1221 1222 1214
f 1214 1222 1215 1207
f 1215 1223 1224 1216
f 1216 1224 1225 1217
f 1217 1225 1226 1218
f 1218 1226 1227 1219
f 1219 1227 1228 1220
f 1220 1228 1229 1221
f 1221 1229 1230 1222
f 1222 1230 1223 1215
f 1223 1231 1232 1224
f 1224 1232 1233 1225
f 1225 1233 1234 1226
f 1226 1234 1235 1227
f 1227 1235 1236 1228
f 1228 1236 1237 1229
f 1229 1237 1238 1230
f 1230 1238 1231 1223
f 1231 1239 1240 1232
f 1232 1240 1241 1233
f 1233 1241 1242 1234
f 1234 1242 1243 1235
f 1235 1243 1244 1236
f 1236 1244 1245 1237
f 1237 1245 1246 1238
f 1238 1246 1239 1231
f 1239 1247 1248 1240
f 1240 1248 1249 1241
f 1241 1249 1250 1242
f 1242 1250 1251 1243
f 1243 1251 1252 1244
f 1244 1252 1253 1245
f 1245 1253 1254 1246
f 1246 1254 1247 1239
f 1247 1255 1256 1248
f 1248 1256 1257 1249
f 1249 1257 1258 1250
f 1250 1258 1259 1251
f 1251 1259 1260 1252
f 1252 1260 1261 1253
f 1253 1261 1262 1254
f 1254 1262 1255 1247
f 1255 1263 1264 1256
f 1256 1264 1265 1257
f 1257 1265 1266 1258
f 1258 1266 1267 1259
f 1259 1267 1268 1260
f 1260 1268 1269 1261
f 1261 1269 1270 1262
f 1262 1270 1263 1255
f 1263 1271 1272 1264
f 1264 1272 1273 1265
f 1265 1273 1274 1266
f 1266 1274 1275 1267
f 1267 1275 1276 1268
f 1268 1276 1277 1269
f 1269 1277 1278 1270
f 1270 1278 1271 1263
f 1271 1279 1280 1272
f 1272 1280 1281 1273
f 1273 1281 1282 1274
f 1274 1282 1283 1275
f 1275 1283 1284 1276
f 1276 1284 1285 1277
f 1277 1285 1286 1278
f 1278 1286 1279 1271
f 1279 1287 1288 1280
f 1280 1288 1289 1281
f 1281 1289 1290 1282
f 1282 1290 1291 1283
f 1283 1291 1292 1284
f 1284 1292 1293 1285
f 1285 1293 1294 1286
f 1286 1294 1287 1279
f 1287 1295 1296 1288
f 1288 1296 1297 1289
f 1289 1297 1298 1290
f 1290 1298 1299 1291
f 1291 1299 1300 1292
f 1292 1300 1301 1293
f 1293 1301 1302 1294
f 1294 1302 1295 1287
f 1295 1303 1304 1296
f 1296 1304 1305 1297
f 1297 1305 1306 1298
f 1298 1306 1307 1299
f 1299 1307 1308 1300
f 1300 1308 1309 1301
f 1301 1309 1310 1302
f 1302 1310 1303 1295
f 1303 1311 1312 1304
f 1304 1312 1313 1305
f 1305 1313 1314 1306
f 1306 1314 1315 1307
f 1307 1315 1316 1308
f 1308 1316 1317 1309
f 1309 1317 1318 1310
f 1310 1318 1311 1303
f 1311 1319 1320 1312
f 1312 1320 1321 1313
f 1313 1321 1322 1314
f 1314 1322 1323 1315
f 1315 1323 1324 1316
f 1316 1324 1325 1317
f 1317 1325 1326 1318
f 1318 1326 1319 1311
f 1319 1327 1328 1320
f 1320 1328 1329 1321
f 1321 1329 1330 1322
f 1322 1330 1331 1323
f 1323 1331 1332 1324
f 1324 1332 1333 1325
f 1325 1333 1334 1326
f 1326 1334 1327 1319
f 1327 1335 1336 1328
f 1328 1336 1337 1329
f 1329 1337 1338 1330
f 1330 1338 1339 1331
f 1331 1339 1340 1332
f 1332 1340 1341 1333
f 1333 1341 1342 1334
f 1334 1342 1335 1327
f 1335 1343 1344 1336
f 1336 1344 1345 1337
f 1337 1345 1346 1338
f 1338 1346 1347 1339
f 1339 1347 1348 1340
f 1340 1348 1349 1341
f 1341 1349 1350 1342
f 1342 1350 1343 1335
f 1343 1127 1128 1344
f 1344 1128 1129 1345
f 1345 1129 1130 1346
f 1346 1130 1131 1347
f 1347 1131 1132 1348
f 1348 1132 1133 1349
f 1349 1133 1134 1350
f 1350 1134 1127 1343

o HC_FairleadRoller
usemtl EdgeMetal
v -4.000000 -40.000000 62.000000
v -4.663381 -40.000000 58.237778
v -6.573511 -40.000000 54.929336
v -9.500000 -40.000000 52.473721
v -13.089870 -40.000000 51.167115
v -16.910130 -40.000000 51.167115
v -20.500000 -40.000000 52.473721
v -23.426489 -40.000000 54.929336
v -25.336619 -40.000000 58.237778
v -26.000000 -40.000000 62.000000
v -25.336619 -40.000000 65.762222
v -23.426489 -40.000000 69.070664
v -20.500000 -40.000000 71.526279
v -16.910130 -40.000000 72.832885
v -13.089870 -40.000000 72.832885
v -9.500000 -40.000000 71.526279
v -6.573511 -40.000000 69.070664
v -4.663381 -40.000000 65.762222
v -4.000000 -23.000000 62.000000
v -4.663381 -23.000000 58.237778
v -6.573511 -23.000000 54.929336
v -9.500000 -23.000000 52.473721
v -13.089870 -23.000000 51.167115
v -16.910130 -23.000000 51.167115
v -20.500000 -23.000000 52.473721
v -23.426489 -23.000000 54.929336
v -25.336619 -23.000000 58.237778
v -26.000000 -23.000000 62.000000
v -25.336619 -23.000000 65.762222
v -23.426489 -23.000000 69.070664
v -20.500000 -23.000000 71.526279
v -16.910130 -23.000000 72.832885
v -13.089870 -23.000000 72.832885
v -9.500000 -23.000000 71.526279
v -6.573511 -23.000000 69.070664
v -4.663381 -23.000000 65.762222
v -15.000000 -40.000000 62.000000
v -15.000000 -23.000000 62.000000
f 1351 1352 1370 1369
f 1352 1353 1371 1370
f 1353 1354 1372 1371
f 1354 1355 1373 1372
f 1355 1356 1374 1373
f 1356 1357 1375 1374
f 1357 1358 1376 1375
f 1358 1359 1377 1376
f 1359 1360 1378 1377
f 1360 1361 1379 1378
f 1361 1362 1380 1379
f 1362 1363 1381 1380
f 1363 1364 1382 1381
f 1364 1365 1383 1382
f 1365 1366 1384 1383
f 1366 1367 1385 1384
f 1367 1368 1386 1385
f 1368 1351 1369 1386
f 1368 1367 1366 1365 1364 1363 1362 1361 1360 1359 1358 1357 1356 1355 1354 1353 1352 1351
f 1369 1370 1371 1372 1373 1374 1375 1376 1377 1378 1379 1380 1381 1382 1383 1384 1385 1386

o HC_CableProxy_00
usemtl RubberCable
v -34.547321 -39.979466 52.000000
v -33.581220 -39.219003 49.722485
v -32.995280 -37.328062 48.055228
v -32.946503 -34.813318 47.444970
v -33.447959 -32.348596 48.055228
v -34.365283 -30.594315 49.722485
v -35.452679 -30.020534 52.000000
v -36.418780 -30.780997 54.277515
v -37.004720 -32.671938 55.944772
v -37.053497 -35.186682 56.555030
v -36.552041 -37.651404 55.944772
v -35.634717 -39.405685 54.277515
v -23.547321 -38.979466 57.000000
v -22.581220 -38.219003 54.722485
v -21.995280 -36.328062 53.055228
v -21.946503 -33.813318 52.444970
v -22.447959 -31.348596 53.055228
v -23.365283 -29.594315 54.722485
v -24.452679 -29.020534 57.000000
v -25.418780 -29.780997 59.277515
v -26.004720 -31.671938 60.944772
v -26.053497 -34.186682 61.555030
v -25.552041 -36.651404 60.944772
v -24.634717 -38.405685 59.277515
v -35.000000 -35.000000 52.000000
v -24.000000 -34.000000 57.000000
f 1389 1390 1402 1401
f 1390 1391 1403 1402
f 1391 1392 1404 1403
f 1392 1393 1405 1404
f 1393 1394 1406 1405
f 1394 1395 1407 1406
f 1395 1396 1408 1407
f 1396 1397 1409 1408
f 1397 1398 1410 1409
f 1398 1399 1411 1410
f 1399 1400 1412 1411
f 1400 1389 1401 1412
f 1400 1399 1398 1397 1396 1395 1394 1393 1392 1391 1390 1389
f 1401 1402 1403 1404 1405 1406 1407 1408 1409 1410 1411 1412

o HC_CableProxy_01
usemtl RubberCable
v -22.418861 -38.743416 57.000000
v -20.998372 -37.563812 55.186309
v -20.382167 -35.429287 53.858596
v -20.735357 -32.911786 53.372619
v -21.963306 -30.685870 53.858596
v -23.736985 -29.347974 55.186309
v -25.581139 -29.256584 57.000000
v -27.001628 -30.436188 58.813691
v -27.617833 -32.570713 60.141404
v -27.264643 -35.088214 60.627381
v -26.036694 -37.314130 60.141404
v -24.263015 -38.652026 58.813691
v -13.418861 -35.743416 66.000000
v -11.998372 -34.563812 64.186309
v -11.382167 -32.429287 62.858596
v -11.735357 -29.911786 62.372619
v -12.963306 -27.685870 62.858596
v -14.736985 -26.347974 64.186309
v -16.581139 -26.256584 66.000000
v -18.001628 -27.436188 67.813691
v -18.617833 -29.570713 69.141404
v -18.264643 -32.088214 69.627381
v -17.036694 -34.314130 69.141404
v -15.263015 -35.652026 67.813691
v -24.000000 -34.000000 57.000000
v -15.000000 -31.000000 66.000000
f 1415 1416 1428 1427
f 1416 1417 1429 1428
f 1417 1418 1430 1429
f 1418 1419 1431 1430
f 1419 1420 1432 1431
f 1420 1421 1433 1432
f 1421 1422 1434 1433
f 1422 1423 1435 1434
f 1423 1424 1436 1435
f 1424 1425 1437 1436
f 1425 1426 1438 1437
f 1426 1415 1427 1438
f 1426 1425 1424 1423 1422 1421 1420 1419 1418 1417 1416 1415
f 1427 1428 1429 1430 1431 1432 1433 1434 1435 1436 1437 1438

o HC_CableProxy_02
usemtl RubberCable
v -16.755617 -35.681646 66.000000
v -14.613544 -35.769499 64.549988
v -12.575022 -34.579368 63.488506
v -11.186270 -32.430149 63.099976
v -10.819404 -29.897722 63.488506
v -11.572726 -27.660650 64.549988
v -13.244383 -26.318354 66.000000
v -15.386456 -26.230501 67.450012
v -17.424978 -27.420632 68.511494
v -18.813730 -29.569851 68.900024
v -19.180596 -32.102278 68.511494
v -18.427274 -34.339350 67.450012
v -8.755617 -38.681646 78.000000
v -6.613544 -38.769499 76.549988
v -4.575022 -37.579368 75.488506
v -3.186270 -35.430149 75.099976
v -2.819404 -32.897722 75.488506
v -3.572726 -30.660650 76.549988
v -5.244383 -29.318354 78.000000
v -7.386456 -29.230501 79.450012
v -9.424978 -30.420632 80.511494
v -10.813730 -32.569851 80.900024
v -11.180596 -35.102278 80.511494
v -10.427274 -37.339350 79.450012
v -15.000000 -31.000000 66.000000
v -7.000000 -34.000000 78.000000
f 1441 1442 1454 1453
f 1442 1443 1455 1454
f 1443 1444 1456 1455
f 1444 1445 1457 1456
f 1445 1446 1458 1457
f 1446 1447 1459 1458
f 1447 1448 1460 1459
f 1448 1449 1461 1460
f 1449 1450 1462 1461
f 1450 1451 1463 1462
f 1451 1452 1464 1463
f 1452 1441 1453 1464
f 1452 1451 1450 1449 1448 1447 1446 1445 1444 1443 1442 1441
f 1453 1454 1455 1456 1457 1458 1459 1460 1461 1462 1463 1464

o HC_CableProxy_03
usemtl RubberCable
v -7.552158 -38.969419 78.000000
v -6.217219 -38.443750 75.845855
v -5.092027 -36.727382 74.268911
v -4.478074 -34.280214 73.691709
v -4.539869 -31.757963 74.268911
v -5.260854 -29.836464 75.845855
v -6.447842 -29.030581 78.000000
v -7.782781 -29.556250 80.154145
v -8.907973 -31.272618 81.731089
v -9.521926 -33.719786 82.308291
v -9.460131 -36.242037 81.731089
v -8.739146 -38.163536 80.154145
v 19.447842 -41.969419 94.000000
v 20.782781 -41.443750 91.845855
v 21.907973 -39.727382 90.268911
v 22.521926 -37.280214 89.691709
v 22.460131 -34.757963 90.268911
v 21.739146 -32.836464 91.845855
v 20.552158 -32.030581 94.000000
v 19.217219 -32.556250 96.154145
v 18.092027 -34.272618 97.731089
v 17.478074 -36.719786 98.308291
v 17.539869 -39.242037 97.731089
v 18.260854 -41.163536 96.154145
v -7.000000 -34.000000 78.000000
v 20.000000 -37.000000 94.000000
f 1467 1468 1480 1479
f 1468 1469 1481 1480
f 1469 1470 1482 1481
f 1470 1471 1483 1482
f 1471 1472 1484 1483
f 1472 1473 1485 1484
f 1473 1474 1486 1485
f 1474 1475 1487 1486
f 1475 1476 1488 1487
f 1476 1477 1489 1488
f 1477 1478 1490 1489
f 1478 1467 1479 1490
f 1478 1477 1476 1475 1474 1473 1472 1471 1470 1469 1468 1467
f 1479 1480 1481 1482 1483 1484 1485 1486 1487 1488 1489 1490

o HC_CableProxy_04
usemtl RubberCable
v 21.499133 -41.769969 94.000000
v 21.866507 -40.952331 91.571990
v 21.733751 -39.075669 89.794563
v 21.136439 -36.642834 89.143979
v 20.234618 -34.305700 89.794563
v 19.269932 -32.690503 91.571990
v 18.500867 -32.230031 94.000000
v 18.133493 -33.047669 96.428010
v 18.266249 -34.924331 98.205437
v 18.863561 -37.357166 98.856021
v 19.765382 -39.694300 98.205437
v 20.730068 -41.309497 96.428010
v 56.499133 -30.769969 103.000000
v 56.866507 -29.952331 100.571990
v 56.733751 -28.075669 98.794563
v 56.136439 -25.642834 98.143979
v 55.234618 -23.305700 98.794563
v 54.269932 -21.690503 100.571990
v 53.500867 -21.230031 103.000000
v 53.133493 -22.047669 105.428010
v 53.266249 -23.924331 107.205437
v 53.863561 -26.357166 107.856021
v 54.765382 -28.694300 107.205437
v 55.730068 -30.309497 105.428010
v 20.000000 -37.000000 94.000000
v 55.000000 -26.000000 103.000000
f 1493 1494 1506 1505
f 1494 1495 1507 1506
f 1495 1496 1508 1507
f 1496 1497 1509 1508
f 1497 1498 1510 1509
f 1498 1499 1511 1510
f 1499 1500 1512 1511
f 1500 1501 1513 1512
f 1501 1502 1514 1513
f 1502 1503 1515 1514
f 1503 1504 1516 1515
f 1504 1493 1505 1516
f 1504 1503 1502 1501 1500 1499 1498 1497 1496 1495 1494 1493
f 1505 1506 1507 1508 1509 1510 1511 1512 1513 1514 1515 1516

o HC_CableProxy_05
usemtl RubberCable
v 59.000000 -29.000000 103.000000
v 58.686612 -28.301395 100.527659
v 57.385400 -26.986134 98.717780
v 55.445021 -25.406638 98.055318
v 53.385400 -23.986134 98.717780
v 51.758409 -23.105243 100.527659
v 51.000000 -23.000000 103.000000
v 51.313388 -23.698605 105.472341
v 52.614600 -25.013866 107.282220
v 54.554979 -26.593362 107.944682
v 56.614600 -28.013866 107.282220
v 58.241591 -28.894757 105.472341
v 71.000000 -13.000000 106.000000
v 70.686612 -12.301395 103.527659
v 69.385400 -10.986134 101.717780
v 67.445021 -9.406638 101.055318
v 65.385400 -7.986134 101.717780
v 63.758409 -7.105243 103.527659
v 63.000000 -7.000000 106.000000
v 63.313388 -7.698605 108.472341
v 64.614600 -9.013866 110.282220
v 66.554979 -10.593362 110.944682
v 68.614600 -12.013866 110.282220
v 70.241591 -12.894757 108.472341
v 55.000000 -26.000000 103.000000
v 67.000000 -10.000000 106.000000
f 1519 1520 1532 1531
f 1520 1521 1533 1532
f 1521 1522 1534 1533
f 1522 1523 1535 1534
f 1523 1524 1536 1535
f 1524 1525 1537 1536
f 1525 1526 1538 1537
f 1526 1527 1539 1538
f 1527 1528 1540 1539
f 1528 1529 1541 1540
f 1529 1530 1542 1541
f 1530 1519 1531 1542
f 1530 1529 1528 1527 1526 1525 1524 1523 1522 1521 1520 1519
f 1531 1532 1533 1534 1535 1536 1537 1538 1539 1540 1541 1542

o HC_SightPost
usemtl DarkMetal
v 9.500000 -43.000000 130.000000
v 18.500000 -43.000000 130.000000
v 18.500000 -35.000000 130.000000
v 9.500000 -35.000000 130.000000
v 9.500000 -43.000000 152.000000
v 18.500000 -43.000000 152.000000
v 18.500000 -35.000000 152.000000
v 9.500000 -35.000000 152.000000
f 1545 1548 1547 1546
f 1549 1550 1551 1552
f 1545 1546 1550 1549
f 1546 1547 1551 1550
f 1547 1548 1552 1551
f 1548 1545 1549 1552

o HC_SightAperture
usemtl EdgeMetal
v 9.500000 -50.000000 149.000000
v 18.500000 -50.000000 149.000000
v 18.500000 -28.000000 149.000000
v 9.500000 -28.000000 149.000000
v 9.500000 -50.000000 157.000000
v 18.500000 -50.000000 157.000000
v 18.500000 -28.000000 157.000000
v 9.500000 -28.000000 157.000000
f 1553 1556 1555 1554
f 1557 1558 1559 1560
f 1553 1554 1558 1557
f 1554 1555 1559 1558
f 1555 1556 1560 1559
f 1556 1553 1557 1560

o HC_ControlGrip
usemtl RubberCable
v -42.500000 -56.000000 90.000000
v -42.054360 -54.540701 88.702845
v -40.805704 -53.370433 87.662607
v -39.001344 -52.720984 87.085319
v -36.998656 -52.720984 87.085319
v -35.194296 -53.370433 87.662607
v -33.945640 -54.540701 88.702845
v -33.500000 -56.000000 90.000000
v -33.945640 -57.459299 91.297155
v -35.194296 -58.629567 92.337393
v -36.998656 -59.279016 92.914681
v -39.001344 -59.279016 92.914681
v -40.805704 -58.629567 92.337393
v -42.054360 -57.459299 91.297155
v -42.500000 -72.000000 72.000000
v -42.054360 -70.540701 70.702845
v -40.805704 -69.370433 69.662607
v -39.001344 -68.720984 69.085319
v -36.998656 -68.720984 69.085319
v -35.194296 -69.370433 69.662607
v -33.945640 -70.540701 70.702845
v -33.500000 -72.000000 72.000000
v -33.945640 -73.459299 73.297155
v -35.194296 -74.629567 74.337393
v -36.998656 -75.279016 74.914681
v -39.001344 -75.279016 74.914681
v -40.805704 -74.629567 74.337393
v -42.054360 -73.459299 73.297155
v -38.000000 -56.000000 90.000000
v -38.000000 -72.000000 72.000000
f 1561 1562 1576 1575
f 1562 1563 1577 1576
f 1563 1564 1578 1577
f 1564 1565 1579 1578
f 1565 1566 1580 1579
f 1566 1567 1581 1580
f 1567 1568 1582 1581
f 1568 1569 1583 1582
f 1569 1570 1584 1583
f 1570 1571 1585 1584
f 1571 1572 1586 1585
f 1572 1573 1587 1586
f 1573 1574 1588 1587
f 1574 1561 1575 1588
f 1574 1573 1572 1571 1570 1569 1568 1567 1566 1565 1564 1563 1562 1561
f 1575 1576 1577 1578 1579 1580 1581 1582 1583 1584 1585 1586 1587 1588

o HC_StatusLight
usemtl AmberLight
v 28.000000 -71.000000 26.000000
v 46.000000 -71.000000 26.000000
v 46.000000 -67.000000 26.000000
v 28.000000 -67.000000 26.000000
v 28.000000 -71.000000 34.000000
v 46.000000 -71.000000 34.000000
v 46.000000 -67.000000 34.000000
v 28.000000 -67.000000 34.000000
f 1591 1594 1593 1592
f 1595 1596 1597 1598
f 1591 1592 1596 1595
f 1592 1593 1597 1596
f 1593 1594 1598 1597
f 1594 1591 1595 1598
